<?xml version="1.0" encoding="utf-8"?>
<!-- Generator: Adobe Illustrator 16.0.0, SVG Export Plug-In . SVG Version: 6.00 Build 0)  -->
<!DOCTYPE svg PUBLIC "-//W3C//DTD SVG 1.1//EN" "http://www.w3.org/Graphics/SVG/1.1/DTD/svg11.dtd">
<svg version="1.1" id="Layer_1" xmlns="http://www.w3.org/2000/svg" xmlns:xlink="http://www.w3.org/1999/xlink" x="0px" y="0px"
	 width="100px" height="100px" viewBox="0 0 100 100" enable-background="new 0 0 100 100" xml:space="preserve">
<path fill="#224989" d="M99.5,50c0,27.337-22.163,49.5-49.5,49.5C22.662,99.5,0.5,77.337,0.5,50C0.5,22.662,22.662,0.5,50,0.5
	C77.337,0.5,99.5,22.662,99.5,50z"/>
<path fill="#FFFFFF" d="M50,96.466C24.379,96.466,3.534,75.622,3.534,50S24.379,3.534,50,3.534S96.466,24.379,96.466,50
	S75.621,96.466,50,96.466z M50,19.698c-16.708,0-30.302,13.594-30.302,30.303c0,16.708,13.593,30.303,30.302,30.303
	c16.708,0,30.302-13.594,30.302-30.303S66.708,19.698,50,19.698z"/>
<path fill="#224989" d="M20.854,28.437c-0.515,0.694-1.085,1.087-1.713,1.179c-0.628,0.091-1.252-0.093-1.873-0.554l-2.962-2.194
	l0.641-0.866l2.933,2.173c0.396,0.293,0.789,0.416,1.18,0.37c0.391-0.048,0.734-0.271,1.032-0.672
	c0.297-0.401,0.411-0.794,0.339-1.179s-0.304-0.725-0.7-1.018l-2.932-2.173l0.641-0.865l2.954,2.189
	c0.626,0.463,0.987,1.009,1.083,1.636C21.572,27.089,21.364,27.748,20.854,28.437z M27.544,21.277l-0.765,0.693l-5.27-1.086
	l2.917,3.218l-0.791,0.717l-4.086-4.51l0.811-0.735l5.142,1.042l-2.837-3.13l0.791-0.717L27.544,21.277z M30.087,19.564
	l-0.884,0.598l-3.412-5.04l0.885-0.598L30.087,19.564z M34.031,17.318l-0.951,0.483l-2.331-4.589l-1.644,0.835l-0.426-0.839
	l4.238-2.153l0.426,0.838l-1.643,0.835L34.031,17.318z M41.123,14.661l-3.977,1.255l-1.833-5.803l3.977-1.256l0.283,0.896
	l-2.959,0.934l0.475,1.505l2.897-0.914l0.283,0.896l-2.897,0.915l0.508,1.609l2.958-0.933L41.123,14.661z M45.07,13.968
	l-2.246,0.285l-0.762-6.04l2.245-0.283c0.935-0.119,1.731,0.066,2.388,0.555c0.657,0.487,1.042,1.177,1.154,2.07
	c0.112,0.887-0.088,1.648-0.599,2.283C46.738,13.472,46.012,13.849,45.07,13.968z M44.952,13.036
	c0.634-0.081,1.112-0.343,1.437-0.788c0.324-0.446,0.448-0.964,0.373-1.556c-0.077-0.609-0.323-1.087-0.738-1.433
	c-0.415-0.347-0.948-0.478-1.6-0.396l-1.186,0.15l0.528,4.173L44.952,13.036z M55.101,14.105c-1.036-0.146-1.807-0.579-2.314-1.302
	l0.702-0.73c0.439,0.626,1.036,0.993,1.79,1.099c0.404,0.057,0.718,0.018,0.943-0.117c0.225-0.135,0.351-0.313,0.384-0.537
	c0.031-0.229-0.063-0.428-0.285-0.597c-0.223-0.169-0.499-0.318-0.832-0.445c-0.332-0.125-0.664-0.269-0.994-0.424
	c-0.332-0.158-0.6-0.382-0.805-0.675s-0.278-0.645-0.222-1.054c0.071-0.506,0.334-0.897,0.787-1.175
	c0.453-0.278,1.007-0.371,1.656-0.279c0.929,0.13,1.642,0.516,2.142,1.157l-0.717,0.701c-0.393-0.521-0.942-0.833-1.647-0.932
	c-0.313-0.043-0.57-0.01-0.774,0.099c-0.202,0.11-0.318,0.279-0.351,0.508c-0.021,0.15,0.025,0.286,0.141,0.406
	c0.115,0.121,0.271,0.227,0.468,0.319c0.194,0.092,0.414,0.186,0.655,0.281c0.242,0.095,0.481,0.205,0.72,0.327
	c0.238,0.122,0.451,0.262,0.638,0.416c0.187,0.155,0.329,0.354,0.428,0.595c0.099,0.242,0.126,0.516,0.083,0.823
	c-0.075,0.542-0.334,0.96-0.775,1.255C56.479,14.119,55.872,14.212,55.101,14.105z M61.373,15.449l-1.017-0.319l1.535-4.911
	l-1.76-0.551l0.282-0.896l4.536,1.419l-0.28,0.896l-1.759-0.55L61.373,15.449z M68.963,18.819l-1.085-0.542L68,17.032l-2.497-1.249
	l-0.924,0.844l-1.086-0.542l4.859-4.375l1.192,0.596L68.963,18.819z M68.15,16.057l0.317-3.084l-2.275,2.105L68.15,16.057z
	 M71.615,20.753l-0.867-0.623l3-4.181l-1.496-1.075l0.547-0.764l3.863,2.772l-0.549,0.763l-1.499-1.075L71.615,20.753z
	 M77.238,25.813l-2.95-2.946l4.3-4.306l2.951,2.946l-0.663,0.666l-2.198-2.192l-1.114,1.117l2.15,2.147l-0.664,0.665l-2.15-2.146
	l-1.193,1.194l2.197,2.192L77.238,25.813z M79.503,28.93c-0.609-0.851-0.827-1.708-0.653-2.574l1.013,0.004
	c-0.148,0.75-0.004,1.435,0.439,2.054c0.235,0.331,0.481,0.532,0.732,0.602c0.253,0.07,0.471,0.039,0.653-0.092
	c0.188-0.134,0.267-0.34,0.236-0.618c-0.03-0.278-0.114-0.58-0.252-0.908c-0.139-0.328-0.265-0.666-0.379-1.014
	c-0.114-0.349-0.137-0.697-0.065-1.048c0.069-0.351,0.274-0.645,0.611-0.887c0.415-0.298,0.88-0.378,1.392-0.24
	c0.514,0.137,0.963,0.473,1.345,1.006c0.547,0.762,0.76,1.545,0.64,2.349l-1.002-0.034c0.105-0.645-0.048-1.257-0.462-1.835
	c-0.186-0.258-0.387-0.422-0.605-0.493c-0.221-0.072-0.423-0.04-0.611,0.095c-0.123,0.088-0.188,0.216-0.195,0.382
	c-0.009,0.167,0.021,0.353,0.091,0.559c0.067,0.205,0.15,0.429,0.248,0.669c0.099,0.241,0.186,0.489,0.259,0.745
	c0.078,0.257,0.122,0.506,0.14,0.749c0.017,0.243-0.029,0.482-0.136,0.721c-0.107,0.237-0.286,0.446-0.539,0.626
	c-0.445,0.319-0.927,0.419-1.442,0.304C80.441,29.937,79.957,29.563,79.503,28.93z M8.997,64.271l8.347-3.759l2.005,4.455
	c0.423,0.94,0.481,1.798,0.174,2.575c-0.308,0.775-0.87,1.347-1.689,1.715c-0.809,0.363-1.604,0.404-2.387,0.122
	c-0.783-0.285-1.386-0.896-1.809-1.835l-0.868-1.931l-2.634,1.188L8.997,64.271z M14.969,64.624l0.718,1.596
	c0.101,0.224,0.239,0.382,0.415,0.473c0.176,0.093,0.369,0.092,0.576-0.002c0.216-0.099,0.35-0.241,0.4-0.434
	c0.05-0.19,0.025-0.401-0.077-0.629l-0.72-1.597L14.969,64.624z M16.02,75.1c0.026-1.296,0.567-2.409,1.625-3.339
	c1.059-0.93,2.232-1.326,3.521-1.186c1.288,0.142,2.403,0.747,3.345,1.818c0.943,1.072,1.401,2.256,1.376,3.552
	c-0.026,1.295-0.567,2.409-1.627,3.339c-1.058,0.93-2.231,1.325-3.52,1.186c-1.288-0.142-2.402-0.746-3.345-1.819
	C16.454,77.579,15.994,76.396,16.02,75.1z M21.15,73.24c-0.604-0.011-1.152,0.201-1.646,0.636c-0.494,0.436-0.773,0.95-0.84,1.551
	c-0.067,0.6,0.114,1.143,0.543,1.632c0.43,0.488,0.945,0.736,1.549,0.747c0.604,0.011,1.152-0.201,1.646-0.635
	c0.494-0.435,0.773-0.951,0.841-1.552c0.066-0.599-0.115-1.144-0.544-1.631C22.271,73.499,21.754,73.25,21.15,73.24z M27.641,76.585
	l2.713,1.504l-1.684,5.473l3.928-4.229l1.829,1.013l-1.508,5.569l3.735-4.336l2.726,1.511l-6.728,6.736l-2.543-1.409l1.482-5.109
	l-3.545,3.966l-2.544-1.409L27.641,76.585z M38.807,91.907l1.663-9.001l6.938,1.281l-0.438,2.373l-4.21-0.777l-0.166,0.896
	l4.119,0.762l-0.438,2.371l-4.118-0.761l-0.183,0.988l4.21,0.777l-0.438,2.372L38.807,91.907z M49.844,93.411l-0.781-9.122
	l4.867-0.416c1.028-0.088,1.856,0.141,2.487,0.688c0.63,0.547,0.981,1.266,1.059,2.161c0.063,0.714-0.051,1.311-0.334,1.796
	c-0.282,0.484-0.64,0.854-1.071,1.11l1.932,3.082l-3.144,0.269l-1.499-2.763l-0.997,0.085l0.244,2.871L49.844,93.411z
	 M52.156,87.891l1.678-0.144c0.253-0.021,0.461-0.102,0.624-0.237c0.162-0.139,0.232-0.325,0.214-0.56
	c-0.02-0.228-0.12-0.396-0.302-0.506s-0.401-0.153-0.658-0.132l-1.678,0.144L52.156,87.891z M62.097,91.717l-3.357-8.515
	l5.167-2.038c0.819-0.323,1.533-0.351,2.142-0.078c0.609,0.272,1.023,0.687,1.244,1.25c0.206,0.518,0.239,1.005,0.101,1.457
	c-0.137,0.455-0.4,0.811-0.789,1.068c0.495-0.118,0.973-0.043,1.431,0.224c0.461,0.269,0.797,0.676,1.012,1.22
	c0.252,0.641,0.25,1.271-0.006,1.894c-0.257,0.621-0.789,1.093-1.594,1.409L62.097,91.717z M62.559,85.327l1.99-0.785
	c0.137-0.056,0.237-0.149,0.3-0.288c0.063-0.138,0.065-0.278,0.009-0.426c-0.058-0.145-0.154-0.242-0.292-0.292
	c-0.136-0.049-0.272-0.046-0.409,0.008l-1.991,0.784L62.559,85.327z M63.831,88.554l2.065-0.813
	c0.187-0.074,0.313-0.181,0.381-0.319c0.066-0.14,0.069-0.29,0.006-0.452c-0.063-0.154-0.167-0.263-0.318-0.324
	c-0.152-0.063-0.316-0.06-0.495,0.012l-2.065,0.813L63.831,88.554z M72.863,87.058l-3.05-9.268l2.729-2.167l8.338,5.067l-2.46,1.954
	l-0.924-0.636l-2.582,2.052l0.41,1.043L72.863,87.058z M73.994,81.707l1.417-1.125l-2.541-1.746L73.994,81.707z M83.059,78.018
	l-7.363-5.438l1.648-2.23l5.423,4.004l2.058-2.786L86.765,73L83.059,78.018z M88.65,69.616l-8.422-3.585l1.087-2.553l6.202,2.641
	l1.357-3.188l2.219,0.943L88.65,69.616z"/>
<g>
	<g>
		
			<radialGradient id="SVGID_1_" cx="375.8594" cy="-221.8276" r="62.4712" gradientTransform="matrix(0.8779 0 0 -0.9092 -279.6035 -164.3964)" gradientUnits="userSpaceOnUse">
			<stop  offset="0" style="stop-color:#0095CF"/>
			<stop  offset="0.2263" style="stop-color:#0074CF"/>
			<stop  offset="1" style="stop-color:#333366"/>
		</radialGradient>
		<path fill="url(#SVGID_1_)" d="M19.389,50.171V50c0-16.908,13.152-30.623,30.728-30.623c17.551,0,30.585,13.571,30.585,30.454V50
			c0,16.957-13.207,30.623-30.725,30.623C32.375,80.623,19.389,67.141,19.389,50.171z"/>
		<g>
			<g>
				<defs>
					<path id="SVGID_2_" d="M19.389,50.171V50c0-16.908,13.152-30.623,30.728-30.623c17.551,0,30.585,13.571,30.585,30.454V50
						c0,16.957-13.207,30.623-30.725,30.623C32.375,80.623,19.389,67.141,19.389,50.171z"/>
				</defs>
				<clipPath id="SVGID_3_">
					<use xlink:href="#SVGID_2_"  overflow="visible"/>
				</clipPath>
				<polygon id="stripe_20_" clip-path="url(#SVGID_3_)" fill="#B22234" points="20.161,63.539 63.208,18.986 66.428,22.343 
					23.406,66.884 				"/>
			</g>
			<g>
				<defs>
					<path id="SVGID_4_" d="M19.389,50.171V50c0-16.908,13.152-30.623,30.728-30.623c17.551,0,30.585,13.571,30.585,30.454V50
						c0,16.957-13.207,30.623-30.725,30.623C32.375,80.623,19.389,67.141,19.389,50.171z"/>
				</defs>
				<clipPath id="SVGID_5_">
					<use xlink:href="#SVGID_4_"  overflow="visible"/>
				</clipPath>
				<polygon id="stripe_19_" clip-path="url(#SVGID_5_)" fill="#B22234" points="26.623,70.247 69.621,25.648 72.837,29.029 
					29.814,73.59 				"/>
			</g>
			<g>
				<defs>
					<path id="SVGID_6_" d="M19.389,50.171V50c0-16.908,13.152-30.623,30.728-30.623c17.551,0,30.585,13.571,30.585,30.454V50
						c0,16.957-13.207,30.623-30.725,30.623C32.375,80.623,19.389,67.141,19.389,50.171z"/>
				</defs>
				<clipPath id="SVGID_7_">
					<use xlink:href="#SVGID_6_"  overflow="visible"/>
				</clipPath>
				<polygon id="stripe_18_" clip-path="url(#SVGID_7_)" fill="#B22234" points="33.027,76.907 76.071,32.334 79.33,35.711 
					36.282,80.26 				"/>
			</g>
			<g>
				<defs>
					<path id="SVGID_8_" d="M19.389,50.171V50c0-16.908,13.152-30.623,30.728-30.623c17.551,0,30.585,13.571,30.585,30.454V50
						c0,16.957-13.207,30.623-30.725,30.623C32.375,80.623,19.389,67.141,19.389,50.171z"/>
				</defs>
				<clipPath id="SVGID_9_">
					<use xlink:href="#SVGID_8_"  overflow="visible"/>
				</clipPath>
				<polygon id="stripe_17_" clip-path="url(#SVGID_9_)" fill="#FFFFFF" points="23.345,66.863 66.364,22.296 69.577,25.636 
					26.557,70.214 				"/>
			</g>
			<g>
				<defs>
					<path id="SVGID_10_" d="M19.389,50.171V50c0-16.908,13.152-30.623,30.728-30.623c17.551,0,30.585,13.571,30.585,30.454V50
						c0,16.957-13.207,30.623-30.725,30.623C32.375,80.623,19.389,67.141,19.389,50.171z"/>
				</defs>
				<clipPath id="SVGID_11_">
					<use xlink:href="#SVGID_10_"  overflow="visible"/>
				</clipPath>
				<polygon id="stripe_16_" clip-path="url(#SVGID_11_)" fill="#FFFFFF" points="29.77,73.52 72.814,28.958 76.071,32.325 
					33.023,76.842 				"/>
			</g>
		</g>
		<polygon fill="#FFFFFF" points="37.653,35.927 40.418,33.858 36.968,33.858 35.928,30.438 34.847,33.858 31.372,33.858 
			34.198,35.927 33.108,39.349 35.928,37.232 38.684,39.349 		"/>
		<polygon fill="#FFFFFF" points="66.763,65.5 69.556,63.368 66.115,63.368 65.054,59.975 63.965,63.368 60.493,63.368 63.315,65.5 
			62.231,68.888 65.054,66.799 67.839,68.888 		"/>
	</g>
</g>
</svg>
