<?xml version="1.0" encoding="utf-8"?>
<!-- Generator: Adobe Illustrator 16.0.0, SVG Export Plug-In . SVG Version: 6.00 Build 0)  -->
<!DOCTYPE svg PUBLIC "-//W3C//DTD SVG 1.1//EN" "http://www.w3.org/Graphics/SVG/1.1/DTD/svg11.dtd">
<svg version="1.1" id="Layer_1" xmlns="http://www.w3.org/2000/svg" xmlns:xlink="http://www.w3.org/1999/xlink" x="0px" y="0px"
	 width="100px" height="100px" viewBox="0 0 100 100" enable-background="new 0 0 100 100" xml:space="preserve">
<g>
	
		<radialGradient id="SVGID_1_" cx="344.1816" cy="-195.9834" r="46.5655" gradientTransform="matrix(1 0 0 -1 -296 -155)" gradientUnits="userSpaceOnUse">
		<stop  offset="0" style="stop-color:#0495D8"/>
		<stop  offset="1" style="stop-color:#18449B"/>
	</radialGradient>
	<path fill="url(#SVGID_1_)" d="M85.129,63.551l1.117-2.73l-2.509,1.551l-0.561-0.476c1.22-3.204,1.374-6.632,1.613-10.205
		l0.321,1.283v-2.829l3.301-0.886l-2.39-0.867l0.146-2.827l-0.841,1.273c-0.228-3.326-0.862-6.527-1.938-9.534l0.39-0.323l1.97,1.2
		l-0.876-2.119l1.748-1.5l-2.292,0.185l-0.886-2.12l-0.524,2.24l-0.455,0.035c-1.349-3.051-3.107-5.875-5.22-8.402l2.134,0.333
		l-2.673-2.667l1.704-3.375l-3.364,1.721l-2.682-2.661l0.344,2.11c-2.046-1.707-4.29-3.184-6.686-4.4l0.043-0.579l3.676-0.891
		l-3.493-1.441l0.285-3.771l-2.451,2.877l-3.496-1.429l1.989,3.218l-0.311,0.366c-2.882-1.063-5.939-2.53-9.118-2.812l1.747-2.043
		h-3.777l-1.182-2.82l-1.161,3.982l-3.779,0.199l1.74,1.352c-2.565,0.227-5.055,0.774-7.437,1.522l1.181-1.912l-3.487,1.465
		l-2.466-2.863l0.306,3.775l-3.487,1.451l2.194,0.522c-2.579,1.345-4.975,2.995-7.135,4.907l-0.156-0.077l0.401-2.545l-1.821,1.824
		l-2.297-1.164l1.173,2.292l-1.813,1.826l2.544-0.415l0.044,0.09c-2.545,2.615-4.692,5.62-6.34,8.913l-0.721-0.057l-0.767-3.176
		l-1.246,3.02l-3.262-0.243l2.492,2.115l-1.24,3.021l2.78-1.718l0.483,0.411c-1.087,2.893-1.381,5.968-1.679,9.163l-0.912-1.838
		v3.957l-4.191,1.242l3.562,1.216l-0.094,3.958l1.264-1.829c0.231,2.494,0.69,4.917,1.416,7.233l-0.99,0.841l-3.231-1.97
		l1.442,3.492l-2.862,2.467l3.766-0.31l1.457,3.486l0.865-3.68l1.16-0.093c1.041,2.261,2.301,4.397,3.77,6.373l-3.465-0.541
		l3.402,3.396l-2.167,4.292l4.284-2.192l3.406,3.39l-0.472-2.922c1.925,1.708,4.036,3.206,6.298,4.465l-3.436,0.826l4.256,1.759
		l-0.342,4.597l2.987-3.51l4.261,1.746l-1.717-2.774c2.846,0.947,5.855,1.711,8.972,1.908l-1.197,1.038h2.65l0.831,2.352
		l0.813-2.608l2.65-0.051l-1.188-0.876c3.143-0.195,6.171-0.815,9.039-1.776l0.021,0.018l-2.054,3.362l3.638-1.512l2.569,2.985
		l-0.315-3.93l3.632-1.52l-3.79-0.894c2.955-1.382,5.686-3.155,8.132-5.257l-0.28,1.774l2.239-2.241l2.827,1.426l-1.442-2.817
		l2.23-2.245l-1.751,0.282c1.918-2.239,3.568-4.712,4.888-7.381l0.811,0.063l0.691,2.867l1.125-2.723l2.941,0.219L85.129,63.551z"/>
	
		<radialGradient id="SVGID_2_" cx="344.2646" cy="-196.2578" r="46.3782" gradientTransform="matrix(1 0 0 -1 -296 -155)" gradientUnits="userSpaceOnUse">
		<stop  offset="0" style="stop-color:#0495D8"/>
		<stop  offset="1" style="stop-color:#18449B"/>
	</radialGradient>
	<polygon fill="url(#SVGID_2_)" points="25.366,15.987 26.846,14.908 28.329,15.983 27.757,14.149 29.233,12.978 27.407,12.978 
		26.834,11.335 26.271,13.124 24.443,13.155 25.929,14.237 	"/>
	
		<radialGradient id="SVGID_3_" cx="344.2637" cy="-196.3721" r="46.5145" gradientTransform="matrix(1 0 0 -1 -296 -155)" gradientUnits="userSpaceOnUse">
		<stop  offset="0" style="stop-color:#0495D8"/>
		<stop  offset="1" style="stop-color:#18449B"/>
	</radialGradient>
	<polygon fill="url(#SVGID_3_)" points="40.404,8.101 40.561,10.054 41.58,8.382 43.48,8.838 42.204,7.354 43.222,5.688 
		41.42,6.434 40.146,4.954 40.304,6.903 38.502,7.654 	"/>
	
		<radialGradient id="SVGID_4_" cx="344.2637" cy="-196.3623" r="46.5042" gradientTransform="matrix(1 0 0 -1 -296 -155)" gradientUnits="userSpaceOnUse">
		<stop  offset="0" style="stop-color:#0495D8"/>
		<stop  offset="1" style="stop-color:#18449B"/>
	</radialGradient>
	<polygon fill="url(#SVGID_4_)" points="57.175,9.759 58.348,12.051 58.743,9.506 61.287,9.099 58.989,7.935 59.389,5.39 
		57.57,7.214 55.271,6.055 56.445,8.343 54.63,10.17 	"/>
	
		<radialGradient id="SVGID_5_" cx="344.2686" cy="-196.3711" r="46.5068" gradientTransform="matrix(1 0 0 -1 -296 -155)" gradientUnits="userSpaceOnUse">
		<stop  offset="0" style="stop-color:#0495D8"/>
		<stop  offset="1" style="stop-color:#18449B"/>
	</radialGradient>
	<polygon fill="url(#SVGID_5_)" points="72.932,19.113 75.714,17.388 78.209,19.514 77.438,16.335 80.219,14.616 76.958,14.372 
		76.188,11.201 74.942,14.221 71.684,13.974 74.176,16.09 	"/>
	
		<radialGradient id="SVGID_6_" cx="347.2412" cy="-196.3799" r="43.1889" gradientTransform="matrix(1 0 0 -1 -296 -155)" gradientUnits="userSpaceOnUse">
		<stop  offset="0" style="stop-color:#0495D8"/>
		<stop  offset="1" style="stop-color:#18449B"/>
	</radialGradient>
	<polygon fill="url(#SVGID_6_)" points="82.754,29.468 84.011,27.761 86.022,28.408 84.8,26.715 86.026,25.012 84.231,25.667 
		83.19,23.975 83.19,26.069 81.005,26.728 82.907,27.372 	"/>
	
		<radialGradient id="SVGID_7_" cx="344.2588" cy="-196.3687" r="46.518" gradientTransform="matrix(1 0 0 -1 -296 -155)" gradientUnits="userSpaceOnUse">
		<stop  offset="0" style="stop-color:#0495D8"/>
		<stop  offset="1" style="stop-color:#18449B"/>
	</radialGradient>
	<polygon fill="url(#SVGID_7_)" points="90.317,39.749 91.078,41.569 91.53,39.646 93.504,39.489 91.814,38.46 92.269,36.541 
		90.771,37.829 89.09,36.799 89.846,38.624 88.351,39.908 	"/>
	
		<radialGradient id="SVGID_8_" cx="344.2803" cy="-196.3633" r="46.4963" gradientTransform="matrix(1 0 0 -1 -296 -155)" gradientUnits="userSpaceOnUse">
		<stop  offset="0" style="stop-color:#0495D8"/>
		<stop  offset="1" style="stop-color:#18449B"/>
	</radialGradient>
	<polygon fill="url(#SVGID_8_)" points="90.287,55.807 89.955,53.735 89.008,55.607 86.94,55.286 88.422,56.764 87.478,58.634 
		89.344,57.683 90.828,59.157 90.494,57.089 92.36,56.132 	"/>
	
		<radialGradient id="SVGID_9_" cx="344.2559" cy="-196.4106" r="46.4716" gradientTransform="matrix(1 0 0 -1 -296 -155)" gradientUnits="userSpaceOnUse">
		<stop  offset="0" style="stop-color:#0495D8"/>
		<stop  offset="1" style="stop-color:#18449B"/>
	</radialGradient>
	<polygon fill="url(#SVGID_9_)" points="22.595,81.036 21.596,79.412 21.45,81.316 19.595,81.763 21.358,82.49 21.215,84.396 
		22.452,82.937 24.218,83.662 23.214,82.04 24.453,80.582 	"/>
	
		<radialGradient id="SVGID_10_" cx="344.2598" cy="-199.5239" r="43.7579" gradientTransform="matrix(1 0 0 -1 -296 -155)" gradientUnits="userSpaceOnUse">
		<stop  offset="0" style="stop-color:#0495D8"/>
		<stop  offset="1" style="stop-color:#18449B"/>
	</radialGradient>
	<polygon fill="url(#SVGID_10_)" points="15.055,69.875 12.915,71.443 10.764,69.891 11.595,71.674 9.452,72.499 12.1,72.499 
		12.93,75.754 13.743,73.596 16.393,73.771 14.241,72.315 	"/>
	
		<radialGradient id="SVGID_11_" cx="344.2783" cy="-196.3662" r="46.5254" gradientTransform="matrix(1 0 0 -1 -296 -155)" gradientUnits="userSpaceOnUse">
		<stop  offset="0" style="stop-color:#0495D8"/>
		<stop  offset="1" style="stop-color:#18449B"/>
	</radialGradient>
	<polygon fill="url(#SVGID_11_)" points="5.662,44.068 8.141,43.041 9.893,45.07 9.674,42.396 12.152,41.363 9.538,40.746 
		9.321,38.063 7.92,40.358 5.309,39.737 7.063,41.774 	"/>
	
		<radialGradient id="SVGID_12_" cx="344.2549" cy="-196.3662" r="46.5016" gradientTransform="matrix(1 0 0 -1 -296 -155)" gradientUnits="userSpaceOnUse">
		<stop  offset="0" style="stop-color:#0495D8"/>
		<stop  offset="1" style="stop-color:#18449B"/>
	</radialGradient>
	<polygon fill="url(#SVGID_12_)" points="12.051,26.619 14.291,24.379 17.119,25.806 15.671,22.989 17.902,20.743 14.776,21.25 
		13.328,18.423 12.839,21.558 9.713,22.062 12.545,23.492 	"/>
	
		<radialGradient id="SVGID_13_" cx="344.2637" cy="-196.3745" r="46.5067" gradientTransform="matrix(1 0 0 -1 -296 -155)" gradientUnits="userSpaceOnUse">
		<stop  offset="0" style="stop-color:#0495D8"/>
		<stop  offset="1" style="stop-color:#18449B"/>
	</radialGradient>
	<polygon fill="url(#SVGID_13_)" points="75.931,83.521 73.42,85.071 71.173,83.159 71.868,86.026 69.354,87.577 72.3,87.796 
		72.988,90.661 74.117,87.939 77.06,88.157 74.809,86.245 	"/>
	
		<radialGradient id="SVGID_14_" cx="344.2686" cy="-196.377" r="46.5062" gradientTransform="matrix(1 0 0 -1 -296 -155)" gradientUnits="userSpaceOnUse">
		<stop  offset="0" style="stop-color:#0495D8"/>
		<stop  offset="1" style="stop-color:#18449B"/>
	</radialGradient>
	<polygon fill="url(#SVGID_14_)" points="95.234,63.269 94.576,64.185 93.504,63.835 94.168,64.745 93.508,65.66 94.645,65.309 
		95.373,66.221 95.373,65.094 96.381,64.738 95.237,64.394 	"/>
	
		<radialGradient id="SVGID_15_" cx="344.2607" cy="-196.3687" r="46.5133" gradientTransform="matrix(1 0 0 -1 -296 -155)" gradientUnits="userSpaceOnUse">
		<stop  offset="0" style="stop-color:#0495D8"/>
		<stop  offset="1" style="stop-color:#18449B"/>
	</radialGradient>
	<polygon fill="url(#SVGID_15_)" points="96.317,43.964 97.236,43.612 97.742,44.521 97.742,43.397 98.969,43.044 97.975,42.699 
		98.01,41.569 97.368,42.484 96.304,42.137 96.974,43.048 	"/>
	
		<radialGradient id="SVGID_16_" cx="344.2539" cy="-196.3711" r="46.5236" gradientTransform="matrix(1 0 0 -1 -296 -155)" gradientUnits="userSpaceOnUse">
		<stop  offset="0" style="stop-color:#0495D8"/>
		<stop  offset="1" style="stop-color:#18449B"/>
	</radialGradient>
	<polygon fill="url(#SVGID_16_)" points="84.132,20.433 85.218,20.078 85.892,20.99 85.892,19.861 86.953,19.51 85.872,19.163 
		85.867,18.038 85.205,18.953 84.129,18.606 84.794,19.518 	"/>
	
		<radialGradient id="SVGID_17_" cx="344.2617" cy="-196.3428" r="46.5261" gradientTransform="matrix(1 0 0 -1 -296 -155)" gradientUnits="userSpaceOnUse">
		<stop  offset="0" style="stop-color:#0495D8"/>
		<stop  offset="1" style="stop-color:#18449B"/>
	</radialGradient>
	<polygon fill="url(#SVGID_17_)" points="87.269,73.182 86.607,74.099 85.532,73.75 86.199,74.663 85.538,75.575 86.512,75.224 
		87.076,76.139 87.076,75.013 88.248,74.657 87.271,74.308 	"/>
	
		<radialGradient id="SVGID_18_" cx="344.2715" cy="-196.3579" r="46.5055" gradientTransform="matrix(1 0 0 -1 -296 -155)" gradientUnits="userSpaceOnUse">
		<stop  offset="0" style="stop-color:#0495D8"/>
		<stop  offset="1" style="stop-color:#18449B"/>
	</radialGradient>
	<polygon fill="url(#SVGID_18_)" points="16.398,12.971 17.573,12.619 18.339,13.531 18.339,12.402 19.308,12.051 18.131,11.699 
		18.127,10.579 17.469,11.494 16.393,11.143 17.059,12.055 	"/>
	
		<radialGradient id="SVGID_19_" cx="344.2773" cy="-196.3408" r="46.5368" gradientTransform="matrix(1 0 0 -1 -296 -155)" gradientUnits="userSpaceOnUse">
		<stop  offset="0" style="stop-color:#0495D8"/>
		<stop  offset="1" style="stop-color:#18449B"/>
	</radialGradient>
	<polygon fill="url(#SVGID_19_)" points="14.138,80.203 13.479,81.121 12.401,80.773 13.066,81.686 12.408,82.599 13.208,82.25 
		13.598,83.159 13.598,82.032 14.944,81.676 14.141,81.332 	"/>
	
		<radialGradient id="SVGID_20_" cx="344.2793" cy="-196.3706" r="46.4975" gradientTransform="matrix(1 0 0 -1 -296 -155)" gradientUnits="userSpaceOnUse">
		<stop  offset="0" style="stop-color:#0495D8"/>
		<stop  offset="1" style="stop-color:#18449B"/>
	</radialGradient>
	<polygon fill="url(#SVGID_20_)" points="99.5,49.314 97.208,49.499 96.321,47.385 95.795,49.621 93.504,49.805 95.466,51.002 
		94.933,53.24 96.676,51.738 98.635,52.939 97.759,50.814 	"/>
	
		<radialGradient id="SVGID_21_" cx="344.2588" cy="-196.3481" r="46.485" gradientTransform="matrix(1 0 0 -1 -296 -155)" gradientUnits="userSpaceOnUse">
		<stop  offset="0" style="stop-color:#0495D8"/>
		<stop  offset="1" style="stop-color:#18449B"/>
	</radialGradient>
	<polygon fill="url(#SVGID_21_)" points="29.444,10.43 31.186,8.933 33.147,10.131 32.264,8.01 34.006,6.509 31.717,6.692 
		30.832,4.578 30.302,6.814 28.01,6.999 29.976,8.198 	"/>
	
		<radialGradient id="SVGID_22_" cx="344.2656" cy="-196.3657" r="46.5147" gradientTransform="matrix(1 0 0 -1 -296 -155)" gradientUnits="userSpaceOnUse">
		<stop  offset="0" style="stop-color:#0495D8"/>
		<stop  offset="1" style="stop-color:#18449B"/>
	</radialGradient>
	<polygon fill="url(#SVGID_22_)" points="45.723,88.436 43.067,89.799 40.946,87.695 41.426,90.643 38.762,92.009 41.715,92.466 
		42.193,95.422 43.539,92.75 46.492,93.212 44.377,91.104 	"/>
	
		<radialGradient id="SVGID_23_" cx="344.2578" cy="-196.374" r="46.5023" gradientTransform="matrix(1 0 0 -1 -296 -155)" gradientUnits="userSpaceOnUse">
		<stop  offset="0" style="stop-color:#0495D8"/>
		<stop  offset="1" style="stop-color:#18449B"/>
	</radialGradient>
	<polygon fill="url(#SVGID_23_)" points="6.625,57.989 6.909,54.219 4.456,57.103 0.962,55.669 2.952,58.883 0.5,61.766 
		4.177,60.877 6.16,64.094 6.443,60.319 10.117,59.432 	"/>
</g>
<path fill="#18449B" d="M97.275,52.843c-0.123-1.13-0.555-2.063-1.282-2.773c-0.403-0.396-0.848-0.712-1.331-0.949l1.41-2.366
	l0.565-0.946l-0.931-0.592c-1.432-0.911-3.085-1.374-4.912-1.374c-0.417,0-0.85,0.024-1.284,0.072
	c-1.89,0.208-3.359,0.876-4.37,1.984c-0.355,0.388-0.618,0.803-0.835,1.23l-0.144-1.299l-0.124-1.129l-1.128,0.124l-3.764,0.413
	l-1.13,0.124l0.123,1.129l0.268,2.432l-2.611-2.85l-0.391-0.424l-0.572,0.063l-2.474,0.271c1.342-0.451,2.503-1.185,3.432-2.245
	c1.38-1.573,1.957-3.503,1.714-5.736c-0.247-2.238-1.228-3.998-2.917-5.231c-1.378-1.007-2.978-1.52-4.755-1.52
	c-0.354,0-0.72,0.021-1.088,0.062c-2.219,0.244-4.03,1.15-5.384,2.692c-0.454,0.516-0.814,1.075-1.092,1.667
	c-0.325-0.65-0.772-1.226-1.354-1.707c-0.927-0.769-2.083-1.159-3.432-1.159c-0.27,0-0.55,0.015-0.834,0.046l-6.628,0.728
	l-0.96,0.105l-1.052,0.116l-3.82,0.418l-1.129,0.125l0.124,1.128l0.794,7.229c0.045,0.413-0.081,0.628-0.194,0.771
	c-0.063,0.079-0.246,0.31-0.879,0.379c-0.094,0.01-0.183,0.016-0.269,0.016c-0.299,0-0.524-0.064-0.686-0.193
	c-0.144-0.116-0.313-0.299-0.359-0.709l-0.794-7.228l-0.124-1.13l-1.129,0.124l-3.802,0.418l-0.391,0.042l0,0l-1.129,0.124
	l-9.577,1.052l-1.129,0.124l0.123,1.129l1.365,12.422l0.124,1.125l-1.057,0.116l0,0l-0.881,0.097l-5.201,0.57l-0.79,0.087
	l-0.19,0.773l-0.777,3.175l-1.454-2.934l-0.353-0.709l-0.79,0.085l-5.199,0.572l-1.129,0.124l0.124,1.129l1.364,12.424l0.124,1.127
	l1.129-0.122l3.766-0.412l1.129-0.125l-0.123-1.13l-0.129-1.177l0.754,1.506l0.354,0.706l0.785-0.087l1.68-0.185l0.786-0.087
	l0.191-0.766l0.411-1.634l0.129,1.178l0.123,1.129l1.129-0.123l3.766-0.414l1.129-0.124l0,0l0.881-0.097l3.765-0.414l0.873-0.095
	l0,0l1.129-0.123l8.466-0.929l1.129-0.123l0,0l0.38-0.043l8.469-0.93l0.38-0.041v0.002l1.131-0.13l3.768-0.411l1.129-0.124
	l-0.125-1.129l-0.268-2.444c0.428,0.594,0.95,1.119,1.573,1.574c1.378,1.009,2.977,1.52,4.755,1.52c0.354,0,0.719-0.021,1.088-0.061
	c2.22-0.243,4.03-1.152,5.385-2.693c0.511-0.582,0.911-1.214,1.201-1.893l0.27,2.461l0.124,1.13l1.13-0.126l3.765-0.412l1.129-0.123
	l-0.124-1.13l-0.311-2.821l2.915,3.206l0.389,0.43l0.576-0.063l3.622-0.398l1.129-0.124l-0.124-1.129L85.5,57.989
	c1.311,0.702,2.805,1.075,4.477,1.075c0.45,0,0.923-0.026,1.397-0.079c1.933-0.211,3.445-0.845,4.495-1.885
	C96.991,55.98,97.464,54.552,97.275,52.843z M68.096,37.53c0.295-0.404,0.694-0.623,1.258-0.686c0.089-0.01,0.179-0.015,0.265-0.015
	c0.441,0,0.791,0.13,1.106,0.409c0.411,0.362,0.634,0.816,0.699,1.429c0.068,0.608-0.054,1.112-0.369,1.547
	c-0.296,0.405-0.694,0.622-1.257,0.685c-0.091,0.01-0.18,0.015-0.265,0.015c-0.439,0-0.792-0.13-1.112-0.411
	c-0.401-0.354-0.63-0.823-0.695-1.427C67.655,38.461,67.774,37.969,68.096,37.53z M36.865,59.14l-0.879-8.022l-0.124-1.124
	l1.101-0.121l-0.124-1.128l-0.22-2.004c0.366,0.546,0.794,1.048,1.34,1.46c0.895,0.675,2.01,1.066,3.305,1.197l-0.319,0.035
	l-1.129,0.124l0.124,1.129l0.881,8.021l-0.381,0.043L36.865,59.14z M46.842,58.044l-0.879-8.021l-0.123-1.128l-0.195,0.022
	c1.267-0.41,2.302-1.027,3.038-1.896c0.747-0.878,1.174-1.912,1.336-3.059l0.361,3.294l0.124,1.126l-0.712,0.079l0.124,1.128
	l0.882,8.022l-0.38,0.041L46.842,58.044z M57.405,49.514c-0.508,0.577-0.905,1.204-1.194,1.877l-0.271-2.463l-0.124-1.125
	l0.709-0.077l-0.123-1.13l-0.178-1.618l1.13,1.97l0.369,0.646l0.738-0.082l2.441-0.268C59.53,47.692,58.351,48.438,57.405,49.514z
	 M65.099,55.726c-0.293,0.402-0.691,0.62-1.254,0.683c-0.093,0.01-0.181,0.016-0.266,0.016c-0.441,0-0.792-0.13-1.113-0.412
	c-0.4-0.354-0.629-0.822-0.694-1.427c-0.067-0.615,0.05-1.106,0.369-1.543c0.297-0.406,0.694-0.625,1.258-0.687
	c0.093-0.01,0.183-0.016,0.27-0.016c0.438,0,0.787,0.129,1.104,0.41c0.403,0.354,0.632,0.821,0.697,1.429
	C65.536,54.782,65.416,55.29,65.099,55.726z M68.633,48.282c-1.192-0.874-2.562-1.35-4.059-1.469l-1.006-1.526l-2.171-3.29
	c0.204-0.211,0.391-0.447,0.564-0.695c0.457,1.507,1.326,2.738,2.6,3.671c1.382,1.009,2.981,1.52,4.758,1.52
	c0.169,0,0.35-0.021,0.523-0.029l0.102,0.928l0.271,2.479C69.785,49.269,69.26,48.739,68.633,48.282z M85.109,54.449l-0.218-1.987
	c0.066,0.079,0.122,0.166,0.196,0.239c0.212,0.213,0.435,0.402,0.667,0.572L85.109,54.449z"/>
<path fill="#FFFFFF" d="M34.344,36.444l0.359,3.274l-5.81,0.638l0.135,1.238l5.684-0.625l0.36,3.272l-5.685,0.625l0.15,1.364
	l5.812-0.639l0.36,3.274l-9.578,1.052l-1.364-12.423L34.344,36.444 M48.132,34.93l0.8,7.304c0.177,1.613-0.194,2.963-1.119,4.053
	c-0.923,1.089-2.397,1.745-4.422,1.966c-0.416,0.045-0.813,0.07-1.191,0.07c-1.466,0-2.652-0.343-3.56-1.028
	C37.5,46.431,36.842,45.2,36.668,43.6l-0.805-7.32l3.803-0.419l0.792,7.229c0.07,0.623,0.328,1.112,0.779,1.472
	c0.37,0.295,0.834,0.443,1.396,0.443c0.126,0,0.258-0.007,0.393-0.023c0.736-0.081,1.283-0.346,1.641-0.796
	c0.361-0.449,0.506-0.984,0.439-1.605l-0.793-7.23L48.132,34.93 M57.482,33.942c1.082,0,1.985,0.298,2.709,0.898
	c0.876,0.726,1.381,1.697,1.515,2.916c0.106,0.97-0.024,1.791-0.397,2.461c-0.37,0.669-0.845,1.186-1.424,1.549l2.733,4.146
	l-4.282,0.47l-2.134-3.723l-1.361,0.15l0.43,3.911l-3.764,0.412l-1.365-12.424l6.627-0.728
	C57.017,33.954,57.253,33.942,57.482,33.942 M54.482,39.527l2.287-0.252c0.345-0.038,0.627-0.153,0.843-0.346
	c0.218-0.193,0.309-0.45,0.272-0.771c-0.034-0.31-0.177-0.537-0.427-0.681c-0.2-0.114-0.429-0.17-0.688-0.17
	c-0.069,0-0.14,0.003-0.214,0.011l-2.288,0.251L54.482,39.527 M69.83,32.387c1.539,0,2.902,0.434,4.087,1.302
	c1.429,1.043,2.247,2.523,2.458,4.437c0.208,1.913-0.271,3.534-1.438,4.864c-1.167,1.329-2.72,2.1-4.658,2.312
	c-0.328,0.036-0.648,0.054-0.962,0.054c-1.538,0-2.899-0.434-4.087-1.301c-1.429-1.045-2.246-2.523-2.455-4.436
	c-0.211-1.916,0.266-3.536,1.437-4.864c1.166-1.329,2.72-2.101,4.656-2.313C69.197,32.406,69.519,32.387,69.83,32.387 M69.532,42.05
	c0.128,0,0.256-0.006,0.389-0.022c0.884-0.096,1.566-0.478,2.054-1.145c0.486-0.667,0.679-1.446,0.581-2.339
	S72.1,36.934,71.48,36.39c-0.523-0.464-1.145-0.694-1.86-0.694c-0.128,0-0.258,0.006-0.391,0.021
	c-0.883,0.098-1.567,0.478-2.053,1.145c-0.486,0.667-0.679,1.444-0.581,2.338c0.097,0.892,0.457,1.611,1.075,2.156
	C68.197,41.819,68.817,42.05,69.532,42.05 M23.313,52.51l1.364,12.424l-3.765,0.413l-0.821-7.468l-1.95,7.771l-1.68,0.184
	l-3.589-7.162l0.82,7.468l-3.766,0.412L8.562,54.13l5.201-0.572l2.834,5.718l1.517-6.195L23.313,52.51 M29.089,51.876l1.365,12.425
	l-3.766,0.412l-1.363-12.424L29.089,51.876 M34.855,51.243l1.005,9.149l4.703-0.516l0.359,3.273l-8.466,0.93l-1.364-12.423
	L34.855,51.243 M44.833,50.148l1.003,9.149l4.704-0.517l0.358,3.273l-8.467,0.931l-1.364-12.424L44.833,50.148 M54.811,49.052
	l1.364,12.424l-3.767,0.414l-1.364-12.424L54.811,49.052 M63.873,47.896c1.539,0,2.901,0.433,4.089,1.301
	c1.427,1.044,2.245,2.523,2.456,4.437c0.211,1.913-0.268,3.533-1.435,4.861c-1.167,1.33-2.722,2.1-4.658,2.314
	c-0.329,0.037-0.648,0.055-0.963,0.055c-1.538,0-2.9-0.436-4.086-1.302c-1.429-1.048-2.247-2.525-2.458-4.438
	c-0.208-1.914,0.269-3.534,1.439-4.864c1.166-1.329,2.718-2.1,4.657-2.312C63.243,47.915,63.563,47.896,63.873,47.896
	 M63.576,57.561c0.126,0,0.259-0.01,0.391-0.023c0.883-0.097,1.565-0.479,2.051-1.145c0.485-0.667,0.682-1.446,0.581-2.338
	c-0.098-0.894-0.456-1.612-1.073-2.156c-0.522-0.464-1.142-0.693-1.855-0.693c-0.129,0-0.261,0.007-0.395,0.021
	c-0.882,0.099-1.566,0.478-2.053,1.146c-0.486,0.666-0.679,1.443-0.581,2.336c0.097,0.894,0.456,1.611,1.073,2.158
	C62.24,57.326,62.862,57.561,63.576,57.561 M83.032,45.955l1.364,12.423l-3.62,0.396l-5.267-5.791l0.69,6.294l-3.763,0.414
	l-1.365-12.424l3.885-0.426l4.957,5.41l-0.646-5.883L83.032,45.955 M90.795,44.979c1.617,0,3.051,0.398,4.303,1.196l-1.721,2.884
	c-0.967-0.586-1.998-0.88-3.095-0.88c-0.229,0-0.461,0.014-0.695,0.04c-0.633,0.068-0.926,0.291-0.886,0.666
	c0.021,0.202,0.277,0.339,0.766,0.414c0.485,0.072,1.073,0.143,1.766,0.208c0.689,0.064,1.392,0.177,2.1,0.342
	c0.71,0.165,1.331,0.509,1.869,1.035c0.537,0.525,0.853,1.22,0.947,2.086c0.148,1.355-0.212,2.462-1.076,3.322
	c-0.867,0.858-2.139,1.383-3.818,1.564c-0.438,0.046-0.863,0.073-1.276,0.073c-1.829,0-3.399-0.464-4.713-1.393l1.648-3.008
	c1.047,0.813,2.209,1.218,3.49,1.218c0.229,0,0.462-0.014,0.698-0.039c0.92-0.101,1.355-0.375,1.3-0.821
	c-0.022-0.217-0.282-0.354-0.772-0.414c-0.492-0.062-1.082-0.12-1.774-0.168c-0.688-0.055-1.385-0.162-2.088-0.327
	c-0.7-0.164-1.324-0.521-1.869-1.071c-0.545-0.547-0.868-1.283-0.97-2.204c-0.122-1.121,0.228-2.132,1.054-3.034
	c0.822-0.902,2.041-1.442,3.653-1.621C90.03,45,90.418,44.979,90.795,44.979"/>
</svg>
