<?xml version="1.0" encoding="utf-8"?>
<!-- Generator: Adobe Illustrator 19.0.0, SVG Export Plug-In . SVG Version: 6.00 Build 0)  -->
<svg version="1.1" id="Layer_1" xmlns="http://www.w3.org/2000/svg" xmlns:xlink="http://www.w3.org/1999/xlink" x="0px" y="0px"
	 viewBox="0 0 100 100" style="enable-background:new 0 0 100 100;" xml:space="preserve">
<style type="text/css">
	.st0{fill:url(#SVGID_1_);}
	.st1{display:none;fill:none;stroke:#233E83;stroke-width:2;stroke-miterlimit:10;}
	.st2{fill:#233E83;}
	.st3{fill:#FAED24;}
	.st4{fill:#FFFFFF;}
</style>
<radialGradient id="SVGID_1_" cx="50" cy="53.0002" r="33.3125" gradientUnits="userSpaceOnUse">
	<stop  offset="0" style="stop-color:#1B93D1"/>
	<stop  offset="1" style="stop-color:#234185"/>
</radialGradient>
<circle class="st0" cx="50" cy="53" r="33.3"/>
<circle id="XMLID_3_" class="st1" cx="50" cy="50" r="47"/>
<g id="XMLID_2_">
	<g id="XMLID_29_">
		<g id="XMLID_5_">
			<polygon class="st2" points="90.1,24.6 91.2,28.2 95.1,28.2 92,30.4 93.2,34.1 90.1,31.8 87,34.1 88.2,30.4 85.1,28.2 88.9,28.2 
							"/>
		</g>
	</g>
	<g id="XMLID_28_">
		<g id="XMLID_6_">
			<polygon class="st2" points="83.9,15.8 85.1,19.4 88.9,19.4 85.8,21.6 87,25.3 83.9,23 80.8,25.3 82,21.6 78.9,19.4 82.7,19.4 
							"/>
		</g>
	</g>
	<g id="XMLID_27_">
		<g id="XMLID_7_">
			<polygon class="st2" points="75.9,8.6 77.1,12.3 80.9,12.3 77.8,14.5 79,18.2 75.9,15.9 72.8,18.2 74,14.5 70.9,12.3 74.7,12.3 
							"/>
		</g>
	</g>
	<g id="XMLID_26_">
		<g id="XMLID_8_">
			<polygon class="st2" points="66.4,3.6 67.6,7.2 71.4,7.2 68.3,9.4 69.5,13.1 66.4,10.8 63.3,13.1 64.5,9.4 61.4,7.2 65.2,7.2 			
				"/>
		</g>
	</g>
	<g id="XMLID_25_">
		<g id="XMLID_9_">
			<polygon class="st2" points="55.7,0.9 56.9,4.5 60.7,4.5 57.6,6.7 58.8,10.4 55.7,8.1 52.6,10.4 53.8,6.7 50.7,4.5 54.5,4.5 			
				"/>
		</g>
	</g>
	<g id="XMLID_24_">
		<g id="XMLID_10_">
			<polygon class="st2" points="44.3,0.9 45.5,4.5 49.3,4.5 46.2,6.7 47.4,10.4 44.3,8.1 41.2,10.4 42.4,6.7 39.3,4.5 43.1,4.5 			
				"/>
		</g>
	</g>
	<g id="XMLID_23_">
		<g id="XMLID_11_">
			<polygon class="st2" points="33.6,3.6 34.8,7.2 38.6,7.2 35.5,9.4 36.7,13.1 33.6,10.8 30.5,13.1 31.7,9.4 28.6,7.2 32.4,7.2 			
				"/>
		</g>
	</g>
	<g id="XMLID_22_">
		<g id="XMLID_12_">
			<polygon class="st2" points="24.1,8.6 25.3,12.3 29.1,12.3 26,14.5 27.2,18.2 24.1,15.9 21,18.2 22.2,14.5 19.1,12.3 22.9,12.3 
							"/>
		</g>
	</g>
	<g id="XMLID_21_">
		<g id="XMLID_13_">
			<polygon class="st2" points="16.1,15.8 17.3,19.4 21.1,19.4 18,21.6 19.2,25.3 16.1,23 13,25.3 14.2,21.6 11.1,19.4 14.9,19.4 
							"/>
		</g>
	</g>
	<g id="XMLID_20_">
		<g id="XMLID_14_">
			<polygon class="st2" points="9.9,24.6 11.1,28.2 14.9,28.2 11.8,30.4 13,34.1 9.9,31.8 6.8,34.1 8,30.4 4.9,28.2 8.8,28.2 			"/>
		</g>
	</g>
</g>
<g id="XMLID_4_">
	<g id="XMLID_17_">
		<g id="XMLID_16_">
			<polygon class="st2" points="9.9,75.4 8.8,71.8 4.9,71.8 8,69.6 6.8,65.9 9.9,68.2 13,65.9 11.8,69.6 14.9,71.8 11.1,71.8 			"/>
		</g>
	</g>
	<g id="XMLID_15_">
		<g id="XMLID_18_">
			<polygon class="st2" points="16.1,84.2 14.9,80.6 11.1,80.6 14.2,78.4 13,74.7 16.1,77 19.2,74.7 18,78.4 21.1,80.6 17.3,80.6 
							"/>
		</g>
	</g>
	<g id="XMLID_19_">
		<g id="XMLID_30_">
			<polygon class="st2" points="24.1,91.4 22.9,87.7 19.1,87.7 22.2,85.5 21,81.8 24.1,84.1 27.2,81.8 26,85.5 29.1,87.7 25.3,87.7 
							"/>
		</g>
	</g>
	<g id="XMLID_31_">
		<g id="XMLID_32_">
			<polygon class="st2" points="33.6,96.4 32.4,92.8 28.6,92.8 31.7,90.6 30.5,86.9 33.6,89.2 36.7,86.9 35.5,90.6 38.6,92.8 
				34.8,92.8 			"/>
		</g>
	</g>
	<g id="XMLID_33_">
		<g id="XMLID_34_">
			<polygon class="st2" points="44.3,99.1 43.1,95.5 39.3,95.5 42.4,93.3 41.2,89.6 44.3,91.9 47.4,89.6 46.2,93.3 49.3,95.5 
				45.5,95.5 			"/>
		</g>
	</g>
	<g id="XMLID_35_">
		<g id="XMLID_36_">
			<polygon class="st2" points="55.7,99.1 54.5,95.5 50.7,95.5 53.8,93.3 52.6,89.6 55.7,91.9 58.8,89.6 57.6,93.3 60.7,95.5 
				56.9,95.5 			"/>
		</g>
	</g>
	<g id="XMLID_37_">
		<g id="XMLID_38_">
			<polygon class="st2" points="66.4,96.4 65.2,92.8 61.4,92.8 64.5,90.6 63.3,86.9 66.4,89.2 69.5,86.9 68.3,90.6 71.4,92.8 
				67.6,92.8 			"/>
		</g>
	</g>
	<g id="XMLID_39_">
		<g id="XMLID_40_">
			<polygon class="st2" points="75.9,91.4 74.7,87.7 70.9,87.7 74,85.5 72.8,81.8 75.9,84.1 79,81.8 77.8,85.5 80.9,87.7 77.1,87.7 
							"/>
		</g>
	</g>
	<g id="XMLID_41_">
		<g id="XMLID_42_">
			<polygon class="st2" points="83.9,84.2 82.7,80.6 78.9,80.6 82,78.4 80.8,74.7 83.9,77 87,74.7 85.8,78.4 88.9,80.6 85.1,80.6 
							"/>
		</g>
	</g>
	<g id="XMLID_43_">
		<g id="XMLID_44_">
			<polygon class="st2" points="90.1,75.4 88.9,71.8 85.1,71.8 88.2,69.6 87,65.9 90.1,68.2 93.2,65.9 92,69.6 95.1,71.8 91.2,71.8 
							"/>
		</g>
	</g>
</g>
<g id="XMLID_46_">
	<g id="XMLID_47_">
		<g id="XMLID_197_">
			<polygon class="st3" points="74.9,39 75.7,41.3 78.1,41.3 76.1,42.7 76.9,45 74.9,43.6 73,45 73.7,42.7 71.8,41.3 74.2,41.3 			
				"/>
		</g>
	</g>
	<g id="XMLID_198_">
		<g id="XMLID_199_">
			<polygon class="st3" points="71.1,33.5 71.8,35.8 74.2,35.8 72.3,37.2 73,39.5 71.1,38.1 69.2,39.5 69.9,37.2 68,35.8 70.4,35.8 
							"/>
		</g>
	</g>
	<g id="XMLID_200_">
		<g id="XMLID_201_">
			<polygon class="st3" points="66.1,29.1 66.8,31.4 69.2,31.4 67.3,32.8 68,35 66.1,33.6 64.2,35 64.9,32.8 63,31.4 65.4,31.4 			
				"/>
		</g>
	</g>
	<g id="XMLID_202_">
		<g id="XMLID_203_">
			<polygon class="st3" points="60.1,25.9 60.9,28.2 63.3,28.2 61.3,29.6 62.1,31.9 60.1,30.5 58.2,31.9 58.9,29.6 57,28.2 
				59.4,28.2 			"/>
		</g>
	</g>
	<g id="XMLID_204_">
		<g id="XMLID_205_">
			<polygon class="st3" points="53.4,24.2 54.2,26.5 56.6,26.5 54.6,27.9 55.4,30.2 53.4,28.8 51.5,30.2 52.2,27.9 50.3,26.5 
				52.7,26.5 			"/>
		</g>
	</g>
	<g id="XMLID_206_">
		<g id="XMLID_207_">
			<polygon class="st3" points="46.3,24.2 47,26.5 49.4,26.5 47.5,27.9 48.2,30.2 46.3,28.8 44.4,30.2 45.1,27.9 43.2,26.5 
				45.6,26.5 			"/>
		</g>
	</g>
	<g id="XMLID_208_">
		<g id="XMLID_209_">
			<polygon class="st3" points="39.6,25.9 40.3,28.2 42.7,28.2 40.8,29.6 41.5,31.9 39.6,30.5 37.7,31.9 38.4,29.6 36.5,28.2 
				38.9,28.2 			"/>
		</g>
	</g>
	<g id="XMLID_210_">
		<g id="XMLID_211_">
			<polygon class="st3" points="33.7,29.1 34.4,31.4 36.8,31.4 34.8,32.8 35.6,35 33.7,33.6 31.7,35 32.5,32.8 30.5,31.4 32.9,31.4 
							"/>
		</g>
	</g>
	<g id="XMLID_212_">
		<g id="XMLID_213_">
			<polygon class="st3" points="28.6,33.5 29.4,35.8 31.8,35.8 29.8,37.2 30.6,39.5 28.6,38.1 26.7,39.5 27.4,37.2 25.5,35.8 
				27.9,35.8 			"/>
		</g>
	</g>
	<g id="XMLID_214_">
		<g id="XMLID_215_">
			<polygon class="st3" points="24.8,39 25.5,41.3 27.9,41.3 26,42.7 26.7,45 24.8,43.6 22.9,45 23.6,42.7 21.7,41.3 24.1,41.3 			
				"/>
		</g>
	</g>
</g>
<g id="XMLID_311_">
	<g id="XMLID_343_">
		<g id="XMLID_368_">
			<polygon class="st3" points="25.7,60.9 26.4,63.1 28.7,63.1 26.8,64.5 27.5,66.7 25.7,65.3 23.8,66.7 24.5,64.5 22.6,63.1 
				24.9,63.1 			"/>
		</g>
	</g>
	<g id="XMLID_369_">
		<g id="XMLID_370_">
			<polygon class="st3" points="29.4,66.2 30.1,68.4 32.4,68.4 30.5,69.8 31.2,72 29.4,70.6 27.5,72 28.2,69.8 26.3,68.4 28.7,68.4 
							"/>
		</g>
	</g>
	<g id="XMLID_371_">
		<g id="XMLID_372_">
			<polygon class="st3" points="34.2,70.5 34.9,72.7 37.2,72.7 35.4,74.1 36.1,76.3 34.2,74.9 32.3,76.3 33.1,74.1 31.2,72.7 
				33.5,72.7 			"/>
		</g>
	</g>
	<g id="XMLID_373_">
		<g id="XMLID_374_">
			<polygon class="st3" points="40,73.6 40.7,75.8 43,75.8 41.1,77.1 41.8,79.3 40,78 38.1,79.3 38.8,77.1 36.9,75.8 39.2,75.8 			
				"/>
		</g>
	</g>
	<g id="XMLID_375_">
		<g id="XMLID_376_">
			<polygon class="st3" points="46.4,75.2 47.1,77.4 49.5,77.4 47.6,78.8 48.3,81 46.4,79.6 44.6,81 45.3,78.8 43.4,77.4 45.7,77.4 
							"/>
		</g>
	</g>
	<g id="XMLID_377_">
		<g id="XMLID_378_">
			<polygon class="st3" points="53.3,75.2 54,77.4 56.3,77.4 54.5,78.8 55.2,81 53.3,79.6 51.4,81 52.2,78.8 50.3,77.4 52.6,77.4 
							"/>
		</g>
	</g>
	<g id="XMLID_379_">
		<g id="XMLID_380_">
			<polygon class="st3" points="59.8,73.6 60.5,75.8 62.8,75.8 60.9,77.1 61.7,79.3 59.8,78 57.9,79.3 58.6,77.1 56.8,75.8 
				59.1,75.8 			"/>
		</g>
	</g>
	<g id="XMLID_381_">
		<g id="XMLID_382_">
			<polygon class="st3" points="65.5,70.5 66.3,72.7 68.6,72.7 66.7,74.1 67.4,76.3 65.5,74.9 63.7,76.3 64.4,74.1 62.5,72.7 
				64.8,72.7 			"/>
		</g>
	</g>
	<g id="XMLID_383_">
		<g id="XMLID_384_">
			<polygon class="st3" points="70.4,66.2 71.1,68.4 73.4,68.4 71.5,69.8 72.2,72 70.4,70.6 68.5,72 69.2,69.8 67.4,68.4 69.7,68.4 
							"/>
		</g>
	</g>
	<g id="XMLID_385_">
		<g id="XMLID_386_">
			<polygon class="st3" points="74.1,60.9 74.8,63.1 77.1,63.1 75.2,64.5 76,66.7 74.1,65.3 72.2,66.7 72.9,64.5 71.1,63.1 
				73.4,63.1 			"/>
		</g>
	</g>
</g>
<g id="XMLID_387_">
	<g id="XMLID_388_">
		<g id="XMLID_389_">
			<path class="st2" d="M23.3,27l-1.7-2.5l0.8-0.7l1.7,2.5c0.2,0.3,0.4,0.5,0.7,0.5c0.3,0,0.5-0.1,0.8-0.3c0.3-0.3,0.4-0.5,0.4-0.9
				c0-0.3-0.1-0.6-0.3-0.9L24,22.2l0.8-0.7l1.7,2.5c0.4,0.5,0.5,1.1,0.5,1.6c-0.1,0.6-0.3,1.1-0.9,1.6s-1,0.7-1.5,0.7
				C24.1,27.9,23.7,27.6,23.3,27z"/>
		</g>
	</g>
	<g id="XMLID_390_">
		<g id="XMLID_392_">
			<path class="st2" d="M28.3,25.1L26,20.6l0.9-0.6l3.3,1.5l-1.5-2.9l0.8-0.6l2.3,4.5L31,23.2l-3.4-1.6l1.5,3L28.3,25.1z"/>
		</g>
	</g>
	<g id="XMLID_393_">
		<g id="XMLID_395_">
			<path class="st2" d="M32.5,22.2l-2-4.8l0.9-0.5l2,4.8L32.5,22.2z"/>
		</g>
	</g>
	<g id="XMLID_396_">
		<g id="XMLID_398_">
			<path class="st2" d="M32.5,17.4l-0.3-0.9l3.4-1.6l0.3,0.9l-1.2,0.6l1.4,4l-0.9,0.4l-1.4-4L32.5,17.4z"/>
		</g>
	</g>
	<g id="XMLID_399_">
		<g id="XMLID_401_">
			<path class="st2" d="M37.7,19.6l-1.2-5.1l3.1-1.1l0.2,1l-2.2,0.8l0.3,1.1l2.1-0.7l0.2,1l-2.1,0.7l0.3,1.2l2.2-0.8l0.2,1
				L37.7,19.6z"/>
		</g>
	</g>
	<g id="XMLID_402_">
		<g id="XMLID_404_">
			<path class="st2" d="M41.4,18.3L40.7,13l1.8-0.4c0.7-0.1,1.3,0,1.8,0.4s0.8,1,0.9,1.8c0.1,0.8,0,1.5-0.4,2.1s-0.9,0.9-1.6,1.1
				L41.4,18.3z M42.2,17.1l0.8-0.2c0.4-0.1,0.7-0.3,1-0.7c0.2-0.4,0.3-0.8,0.2-1.3s-0.2-0.8-0.5-1.1s-0.7-0.3-1.1-0.2l-0.8,0.2
				L42.2,17.1z"/>
		</g>
	</g>
	<g id="XMLID_405_">
		<g id="XMLID_408_">
			<path class="st2" d="M47.8,17.2v-5.3h1v2.4l1.6-2.4h1.2l-1.8,2.5l1.9,2.8h-1.2L49.1,15l-0.4,0.5v1.6L47.8,17.2z"/>
		</g>
	</g>
	<g id="XMLID_409_">
		<g id="XMLID_411_">
			<path class="st2" d="M52,17.2l0.3-5.3l1,0.1L53,17.2H52z"/>
		</g>
	</g>
	<g id="XMLID_412_">
		<g id="XMLID_414_">
			<path class="st2" d="M53.8,17.3l0.7-5.3l1,0.2l1.6,3.7l0.5-3.3l1,0.2L57.8,18l-0.9-0.2L55.2,14l-0.5,3.4L53.8,17.3z"/>
		</g>
	</g>
	<g id="XMLID_415_">
		<g id="XMLID_417_">
			<path class="st2" d="M59,15.5c0.2-0.8,0.6-1.4,1.1-1.7c0.6-0.3,1.2-0.4,1.8-0.2c0.8,0.3,1.3,0.8,1.5,1.7l-0.9,0.2
				c-0.1-0.2-0.2-0.4-0.3-0.6c-0.1-0.2-0.3-0.3-0.5-0.4c-0.4-0.1-0.8-0.1-1.1,0.2c-0.3,0.2-0.6,0.6-0.7,1.1
				c-0.1,0.5-0.1,0.9,0.1,1.3c0.2,0.4,0.5,0.7,0.9,0.8c0.2,0.1,0.4,0.1,0.5,0.1c0.2,0,0.3-0.1,0.5-0.1l0.2-0.6L61,16.9l0.2-1
				l2.1,0.7l-0.5,2c-0.6,0.5-1.3,0.6-2.1,0.3c-0.6-0.2-1.1-0.6-1.4-1.3C58.8,17,58.8,16.3,59,15.5z"/>
		</g>
	</g>
	<g id="XMLID_418_">
		<g id="XMLID_420_">
			<path class="st2" d="M63.1,19.7l1.8-4.9l1.6,0.8c0.6,0.3,1.1,0.8,1.3,1.5c0.2,0.7,0.2,1.4,0,2.1c-0.3,0.7-0.7,1.2-1.3,1.5
				c-0.6,0.2-1.2,0.2-1.8-0.1L63.1,19.7z M64.3,19.2l0.8,0.4c0.4,0.2,0.8,0.2,1.1,0c0.3-0.2,0.6-0.5,0.8-0.9
				c0.2-0.4,0.2-0.9,0.1-1.3s-0.4-0.7-0.8-0.9l-0.8-0.4L64.3,19.2z"/>
		</g>
	</g>
	<g id="XMLID_421_">
		<g id="XMLID_424_">
			<path class="st2" d="M68.1,21.6c-0.2-0.7,0-1.4,0.3-2.1c0.4-0.7,0.8-1.1,1.4-1.3c0.6-0.2,1.2-0.1,1.8,0.3c0.6,0.4,0.9,1,1.1,1.7
				s0.1,1.4-0.3,2.1s-0.8,1.1-1.4,1.3c-0.6,0.2-1.2,0.1-1.8-0.3C68.6,22.9,68.2,22.3,68.1,21.6z M70.1,19.2
				c-0.4,0.1-0.7,0.4-0.9,0.9C69,20.5,68.9,21,69,21.4c0.1,0.4,0.3,0.8,0.6,1c0.4,0.2,0.7,0.3,1.1,0.2c0.4-0.1,0.7-0.4,0.9-0.9
				c0.2-0.4,0.3-0.9,0.2-1.3c-0.1-0.4-0.3-0.8-0.6-1C70.8,19.1,70.4,19.1,70.1,19.2z"/>
		</g>
	</g>
	<g id="XMLID_425_">
		<g id="XMLID_428_">
			<path class="st2" d="M71.7,25l2.9-4.2l1,1l-0.9,3.4l2.6-1.8l1,1l-2.9,4.2l-0.7-0.7l2.1-3L73.7,27l-0.3-0.3l1.1-4l-2.1,3L71.7,25z
				"/>
		</g>
	</g>
</g>
<g id="XMLID_429_">
	<g id="XMLID_431_">
		<path id="XMLID_432_" class="st4" d="M1,57.1L3.5,46H12l-0.7,2.9H6.2L6,50h5l-0.7,2.9h-5L5,54.1h5.1L9.4,57L1,57.1L1,57.1z"/>
		<path id="XMLID_452_" class="st2" d="M10.2,58H-0.1l2.9-12.9h10.3L12,49.8h-0.1l-0.8,3.5h0.1L10.2,58z M2.1,56.2h6.6L9,55.1H3.9
			l0.7-3h5L9.9,51h-5l0.6-3h5.1l0.3-1.1H4.2L2.1,56.2z"/>
	</g>
	<g id="XMLID_433_">
		<path id="XMLID_434_" class="st4" d="M15.7,49l-1,4.5c0,0.2-0.1,0.3-0.1,0.4c0,0.6,0.5,0.8,1,0.8c0.6,0,1.1-0.4,1.4-0.6l1.1-5h3
			l-1.8,8.1h-3l0.2-0.9c-0.6,0.5-1.3,1.1-2.5,1.1c-1.7,0-2.7-0.9-2.7-2.1c0-0.1,0.1-0.5,0.1-0.7l1.2-5.5h3.1V49z"/>
		<path id="XMLID_447_" class="st2" d="M14,58.2c-2.1,0-3.6-1.2-3.6-3c0-0.2,0.1-0.7,0.1-0.8l1.4-6.2h4.9l-1.2,5.6c0,0,0,0,0,0.1
			c0.2,0,0.4-0.1,0.7-0.2l1.2-5.4h4.9L20.1,58h-4.7C15,58.1,14.5,58.2,14,58.2z M13.4,49.9l-1.1,4.8c0,0.1-0.1,0.4-0.1,0.5
			c0,0.9,0.9,1.2,1.8,1.2c0.9,0,1.4-0.4,1.9-0.9c-0.1,0-0.2,0-0.3,0c-1.1,0-1.9-0.7-1.9-1.7c0-0.2,0-0.4,0.1-0.6l0.7-3.4h-1.1V49.9z
			 M17.5,56.2h1.1l1.4-6.3h-1.2L18,53.6l0.1-0.1L17.5,56.2z"/>
	</g>
	<g id="XMLID_435_">
		<path id="XMLID_436_" class="st4" d="M21,57.1l1.8-8.1h3l-0.2,0.9c0.6-0.6,1.6-1.1,2.7-1.1l-0.7,2.9c-0.2,0-0.5-0.1-0.9-0.1
			c-0.6,0-1.3,0.2-1.7,0.6l-1,4.9H21z"/>
		<path id="XMLID_442_" class="st2" d="M24.8,58h-4.9l2.2-9.9h4.8c0.5-0.2,1-0.2,1.5-0.2h1.1l-1.1,5l-0.9-0.3
			c-0.1,0-0.4-0.1-0.6-0.1c-0.3,0-0.6,0.1-0.9,0.2L24.8,58z M22.2,56.2h1.2l0.7-3.4l0,0l0.7-2.9h-1.2L22.2,56.2z M27.2,49.9
			c-0.4,0.2-0.7,0.4-0.9,0.6L26,50.8c0.3-0.1,0.6-0.1,1-0.1L27.2,49.9z"/>
	</g>
	<g id="XMLID_438_">
		<path id="XMLID_439_" class="st4" d="M27.9,53.5c0-2.5,2-4.7,4.8-4.7c2.9,0,4.3,1.7,4.3,3.8c0,2.5-2,4.7-4.8,4.7
			C29.3,57.3,27.9,55.6,27.9,53.5z M33.9,52.7c0-0.8-0.5-1.3-1.4-1.3c-1,0-1.6,0.9-1.6,1.9c0,0.8,0.5,1.3,1.4,1.3
			C33.3,54.6,33.9,53.7,33.9,52.7z"/>
		<path id="XMLID_455_" class="st2" d="M32.2,58.2c-3.6,0-5.2-2.3-5.2-4.7c0-3.1,2.5-5.6,5.7-5.6c3.6,0,5.2,2.3,5.2,4.7
			C37.9,55.7,35.4,58.2,32.2,58.2z M32.7,49.7c-2.5,0-3.9,1.9-3.9,3.8c0,1.8,1.3,2.9,3.4,2.9c2.5,0,3.9-1.9,3.9-3.8
			C36.1,50.8,34.8,49.7,32.7,49.7z M32.3,55.5c-1.3,0-2.3-0.9-2.3-2.2c0-1.6,1.1-2.8,2.5-2.8c1.3,0,2.3,0.9,2.3,2.2
			C34.8,54.3,33.7,55.5,32.3,55.5z M32.6,52.4c-0.5,0-0.7,0.6-0.7,1c0,0.2,0,0.4,0.5,0.4s0.7-0.6,0.7-1C33,52.6,33,52.4,32.6,52.4z"
			/>
	</g>
	<g id="XMLID_460_">
		<path id="XMLID_461_" class="st4" d="M47.1,57.1l1.5-6.7l-4,6.7h-1.5l-1-6.7l-1.5,6.7h-3.4L39.7,46h4.5l0.8,5.3l3.1-5.3H53
			l-2.5,11.1H47.1z"/>
		<path id="XMLID_463_" class="st2" d="M51.2,58H46l0.5-2.3L45.1,58h-2.8l-0.4-2.7L41.4,58h-5.2L39,45.1h6l0.5,3.6l2.1-3.6H54
			L51.2,58z M48.2,56.2h1.5l2.1-9.3h-1.5L48.2,56.2z M43.9,56.2h0.2l5.5-9.3h-1L44.5,54l-1-7.1h-1L43.9,56.2z M38.4,56.2h1.5
			l2.1-9.3h-1.5L38.4,56.2z"/>
	</g>
	<g id="XMLID_468_">
		<path id="XMLID_469_" class="st4" d="M52.2,57.1L54,49h3l-1.8,8.1H52.2z M54.3,47c0-1.3,1.1-1.9,1.9-1.9c0.9,0,1.5,0.7,1.5,1.4
			c0,1.3-1.1,1.9-1.9,1.9C54.9,48.5,54.3,47.8,54.3,47z"/>
		<path id="XMLID_472_" class="st2" d="M56,58h-4.9l2.2-9.9h0.4c-0.2-0.3-0.3-0.7-0.3-1.1c0-1.8,1.5-2.8,2.8-2.8
			c1.4,0,2.4,1,2.4,2.3c0,0.6-0.2,1.2-0.5,1.6l0,0L56,58z M53.4,56.2h1.2l1.4-6.3h-1.2L53.4,56.2z M56.2,46c-0.3,0-1,0.3-1,1
			c0,0.3,0.3,0.5,0.6,0.5s1-0.3,1-1C56.8,46.2,56.6,46,56.2,46z"/>
	</g>
	<g id="XMLID_476_">
		<path id="XMLID_477_" class="st4" d="M56.9,57.1L59.4,46h3l-2.5,11.1H56.9z"/>
		<path id="XMLID_479_" class="st2" d="M60.6,58h-4.9l2.9-12.9h4.9L60.6,58z M58,56.2h1.2l2.1-9.3h-1.2L58,56.2z"/>
	</g>
	<g id="XMLID_482_">
		<path id="XMLID_483_" class="st4" d="M61.6,57.1L64,46h3l-2.5,11.1H61.6z"/>
		<path id="XMLID_485_" class="st2" d="M65.3,58h-4.9l2.9-12.9h4.9L65.3,58z M62.7,56.2h1.2l2.1-9.3h-1.2L62.7,56.2z"/>
	</g>
	<g id="XMLID_488_">
		<path id="XMLID_489_" class="st4" d="M66.3,57.1l1.8-8.1h3l-1.8,8.1H66.3z M68.3,47c0-1.3,1.1-1.9,1.9-1.9c0.9,0,1.5,0.7,1.5,1.4
			c0,1.3-1.1,1.9-1.9,1.9C69,48.5,68.3,47.8,68.3,47z"/>
		<path id="XMLID_492_" class="st2" d="M70,58h-4.9l2.2-9.9h0.4c-0.2-0.3-0.3-0.7-0.3-1.1c0-1.8,1.5-2.8,2.8-2.8
			c1.4,0,2.4,1,2.4,2.3c0,0.6-0.2,1.2-0.5,1.6l0,0L70,58z M67.4,56.2h1.2l1.4-6.3h-1.2L67.4,56.2z M70.2,46c-0.3,0-1,0.3-1,1
			c0,0.3,0.3,0.5,0.6,0.5c0.3,0,1-0.3,1-1C70.9,46.2,70.6,46,70.2,46z"/>
	</g>
	<g id="XMLID_496_">
		<path id="XMLID_497_" class="st4" d="M71.2,53.5c0-2.5,2-4.7,4.8-4.7c2.9,0,4.3,1.7,4.3,3.8c0,2.5-2,4.7-4.8,4.7
			S71.2,55.6,71.2,53.5z M77.3,52.7c0-0.8-0.5-1.3-1.4-1.3c-1,0-1.6,0.9-1.6,1.9c0,0.8,0.5,1.3,1.4,1.3
			C76.7,54.6,77.3,53.7,77.3,52.7z"/>
		<path id="XMLID_500_" class="st2" d="M75.6,58.2c-3.6,0-5.2-2.3-5.2-4.7c0-3.1,2.5-5.6,5.7-5.6c3.6,0,5.2,2.3,5.2,4.7
			C81.3,55.7,78.8,58.2,75.6,58.2z M76.1,49.7c-2.5,0-3.9,1.9-3.9,3.8c0,1.8,1.3,2.9,3.4,2.9c2.5,0,3.9-1.9,3.9-3.8
			C79.5,50.8,78.2,49.7,76.1,49.7z M75.7,55.5c-1.3,0-2.3-0.9-2.3-2.2c0-1.6,1.1-2.8,2.5-2.8c1.3,0,2.3,0.9,2.3,2.2
			C78.2,54.3,77.1,55.5,75.7,55.5z M76,52.4c-0.5,0-0.7,0.6-0.7,1c0,0.2,0,0.4,0.5,0.4s0.7-0.6,0.7-1C76.4,52.6,76.4,52.4,76,52.4z"
			/>
	</g>
	<g id="XMLID_505_">
		<path id="XMLID_506_" class="st4" d="M86,57.1l0.9-4.2c0-0.2,0.1-0.4,0.1-0.6c0-0.6-0.5-0.8-1-0.8c-0.7,0-1.1,0.3-1.4,0.6l-1.1,5
			h-3l1.8-8.1h3l-0.1,1c0.6-0.5,1.3-1.1,2.5-1.1c1.7,0,2.7,0.9,2.7,2.1c0,0.1-0.1,0.5-0.1,0.7L89,57.1H86z"/>
		<path id="XMLID_508_" class="st2" d="M89.8,58H85l1.2-5.3c0-0.1,0-0.2,0.1-0.3c-0.2,0-0.5,0.1-0.7,0.2L84.3,58h-4.9l2.2-9.9h4.7
			c0.4-0.1,0.8-0.2,1.3-0.2c2.1,0,3.6,1.2,3.6,3c0,0.2-0.1,0.7-0.1,0.8L89.8,58z M87.2,56.2h1.2l1.1-4.8c0-0.1,0.1-0.4,0.1-0.5
			c0-0.9-0.9-1.2-1.8-1.2s-1.4,0.4-1.9,0.9c0.1,0,0.2,0,0.3,0c1.1,0,1.9,0.7,1.9,1.7c0,0.3-0.1,0.6-0.1,0.8L87.2,56.2z M81.7,56.2
			h1.2l0.8-3.7l-0.1,0.1l0.6-2.7h-1.1L81.7,56.2z"/>
	</g>
	<g id="XMLID_512_">
		<path id="XMLID_513_" class="st4" d="M90.5,55.8l1.5-1.9c0.5,0.5,1.8,1.2,2.9,1.2c0.3,0,0.5-0.1,0.5-0.3c0-0.9-3.9-0.5-3.9-3.1
			c0-1.5,1.3-3,3.6-3c1.4,0,2.8,0.5,3.8,1.3l-1.4,2c-0.4-0.4-1.4-1-2.3-1c-0.4,0-0.6,0.2-0.6,0.4c0,0.7,3.9,0.4,3.9,3
			c0,1.7-1.4,3-3.8,3C93.2,57.3,91.5,56.8,90.5,55.8z"/>
		<path id="XMLID_515_" class="st2" d="M94.6,58.2c-1.8,0-3.6-0.7-4.8-1.7l-0.6-0.6l2-2.4c-0.3-0.4-0.5-1-0.5-1.7
			c0-1.9,1.6-3.9,4.5-3.9c1.6,0,3.2,0.6,4.3,1.5l0.6,0.6l-1.7,2.2c0.5,0.5,0.9,1.2,0.9,2.1C99.4,56.6,97.4,58.2,94.6,58.2z
			 M91.7,55.7c0.8,0.5,1.9,0.8,2.9,0.8c1.8,0,2.9-0.8,2.9-2.1c0-0.8-0.7-1.2-2.2-1.6c-0.8-0.2-1.7-0.5-1.7-1.4
			c0-0.6,0.5-1.3,1.5-1.3c0.8,0,1.5,0.3,2.1,0.6l0.3-0.4c-0.7-0.4-1.6-0.6-2.5-0.6c-1.8,0-2.7,1.1-2.7,2.1c0,0.8,0.6,1.1,2,1.5
			c0.8,0.2,1.9,0.5,1.9,1.6c0,0.7-0.6,1.2-1.4,1.2c-1,0-2-0.4-2.8-0.9L91.7,55.7z"/>
	</g>
</g>
<g id="XMLID_518_">
	<g id="XMLID_519_">
		<path id="XMLID_520_" class="st4" d="M1,57.1L3.5,46H12l-0.7,2.9H6.2L6,50h5l-0.7,2.9h-5L5,54.1h5.1L9.4,57L1,57.1L1,57.1z"/>
	</g>
	<g id="XMLID_522_">
		<path id="XMLID_523_" class="st4" d="M15.7,49l-1,4.5c0,0.2-0.1,0.3-0.1,0.4c0,0.6,0.5,0.8,1,0.8c0.6,0,1.1-0.4,1.4-0.6l1.1-5h3
			l-1.8,8.1h-3l0.2-0.9c-0.6,0.5-1.3,1.1-2.5,1.1c-1.7,0-2.7-0.9-2.7-2.1c0-0.1,0.1-0.5,0.1-0.7l1.2-5.5h3.1V49z"/>
	</g>
	<g id="XMLID_525_">
		<path id="XMLID_526_" class="st4" d="M21,57.1l1.8-8.1h3l-0.2,0.9c0.6-0.6,1.6-1.1,2.7-1.1l-0.7,2.9c-0.2,0-0.5-0.1-0.9-0.1
			c-0.6,0-1.3,0.2-1.7,0.6l-1,4.9H21z"/>
	</g>
	<g id="XMLID_528_">
		<path id="XMLID_529_" class="st4" d="M27.9,53.5c0-2.5,2-4.7,4.8-4.7c2.9,0,4.3,1.7,4.3,3.8c0,2.5-2,4.7-4.8,4.7
			C29.3,57.3,27.9,55.6,27.9,53.5z M33.9,52.7c0-0.8-0.5-1.3-1.4-1.3c-1,0-1.6,0.9-1.6,1.9c0,0.8,0.5,1.3,1.4,1.3
			C33.3,54.6,33.9,53.7,33.9,52.7z"/>
	</g>
	<g id="XMLID_532_">
		<path id="XMLID_533_" class="st4" d="M47.1,57.1l1.5-6.7l-4,6.7h-1.5l-1-6.7l-1.5,6.7h-3.4L39.7,46h4.5l0.8,5.3l3.1-5.3H53
			l-2.5,11.1H47.1z"/>
	</g>
	<g id="XMLID_535_">
		<path id="XMLID_536_" class="st4" d="M52.2,57.1L54,49h3l-1.8,8.1H52.2z M54.3,47c0-1.3,1.1-1.9,1.9-1.9c0.9,0,1.5,0.7,1.5,1.4
			c0,1.3-1.1,1.9-1.9,1.9C54.9,48.5,54.3,47.8,54.3,47z"/>
	</g>
	<g id="XMLID_539_">
		<path id="XMLID_540_" class="st4" d="M56.9,57.1L59.4,46h3l-2.5,11.1H56.9z"/>
	</g>
	<g id="XMLID_542_">
		<path id="XMLID_543_" class="st4" d="M61.6,57.1L64,46h3l-2.5,11.1H61.6z"/>
	</g>
	<g id="XMLID_545_">
		<path id="XMLID_546_" class="st4" d="M66.3,57.1l1.8-8.1h3l-1.8,8.1H66.3z M68.3,47c0-1.3,1.1-1.9,1.9-1.9c0.9,0,1.5,0.7,1.5,1.4
			c0,1.3-1.1,1.9-1.9,1.9C69,48.5,68.3,47.8,68.3,47z"/>
	</g>
	<g id="XMLID_549_">
		<path id="XMLID_550_" class="st4" d="M71.2,53.5c0-2.5,2-4.7,4.8-4.7c2.9,0,4.3,1.7,4.3,3.8c0,2.5-2,4.7-4.8,4.7
			S71.2,55.6,71.2,53.5z M77.3,52.7c0-0.8-0.5-1.3-1.4-1.3c-1,0-1.6,0.9-1.6,1.9c0,0.8,0.5,1.3,1.4,1.3
			C76.7,54.6,77.3,53.7,77.3,52.7z"/>
	</g>
	<g id="XMLID_553_">
		<path id="XMLID_554_" class="st4" d="M86,57.1l0.9-4.2c0-0.2,0.1-0.4,0.1-0.6c0-0.6-0.5-0.8-1-0.8c-0.7,0-1.1,0.3-1.4,0.6l-1.1,5
			h-3l1.8-8.1h3l-0.1,1c0.6-0.5,1.3-1.1,2.5-1.1c1.7,0,2.7,0.9,2.7,2.1c0,0.1-0.1,0.5-0.1,0.7L89,57.1H86z"/>
	</g>
	<g id="XMLID_556_">
		<path id="XMLID_557_" class="st4" d="M90.5,55.8l1.5-1.9c0.5,0.5,1.8,1.2,2.9,1.2c0.3,0,0.5-0.1,0.5-0.3c0-0.9-3.9-0.5-3.9-3.1
			c0-1.5,1.3-3,3.6-3c1.4,0,2.8,0.5,3.8,1.3l-1.4,2c-0.4-0.4-1.4-1-2.3-1c-0.4,0-0.6,0.2-0.6,0.4c0,0.7,3.9,0.4,3.9,3
			c0,1.7-1.4,3-3.8,3C93.2,57.3,91.5,56.8,90.5,55.8z"/>
	</g>
</g>
</svg>
