<?xml version="1.0" encoding="utf-8"?>
<!-- Generator: Adobe Illustrator 16.0.0, SVG Export Plug-In . SVG Version: 6.00 Build 0)  -->
<!DOCTYPE svg PUBLIC "-//W3C//DTD SVG 1.1//EN" "http://www.w3.org/Graphics/SVG/1.1/DTD/svg11.dtd">
<svg version="1.1" id="Layer_1" xmlns="http://www.w3.org/2000/svg" xmlns:xlink="http://www.w3.org/1999/xlink" x="0px" y="0px"
	 width="100px" height="100px" viewBox="0 0 100 100" enable-background="new 0 0 100 100" xml:space="preserve">
<linearGradient id="SVGID_1_" gradientUnits="userSpaceOnUse" x1="50.0005" y1="111.7988" x2="50.0005" y2="-25.034">
	<stop  offset="0" style="stop-color:#803A14"/>
	<stop  offset="0.3515" style="stop-color:#AB6E2E"/>
	<stop  offset="0.6" style="stop-color:#F3D33F"/>
	<stop  offset="0.6426" style="stop-color:#EDDC6A"/>
	<stop  offset="0.6818" style="stop-color:#E9E38C"/>
	<stop  offset="0.703" style="stop-color:#E7E699"/>
	<stop  offset="0.7508" style="stop-color:#DAD088"/>
	<stop  offset="0.8502" style="stop-color:#B9985D"/>
	<stop  offset="0.9917" style="stop-color:#833F18"/>
	<stop  offset="1" style="stop-color:#803A14"/>
</linearGradient>
<path fill="url(#SVGID_1_)" d="M95.536,30.764c-2.489-5.885-6.054-11.171-10.592-15.709c-4.539-4.539-9.823-8.101-15.708-10.59
	C63.143,1.888,56.674,0.582,50,0.582c-6.672,0-13.144,1.306-19.236,3.883c-5.885,2.49-11.171,6.052-15.711,10.59
	c-4.536,4.538-8.1,9.824-10.59,15.709C1.885,36.856,0.58,43.328,0.58,50c0,6.674,1.305,13.144,3.884,19.237
	c2.49,5.885,6.054,11.17,10.59,15.708c4.54,4.538,9.826,8.104,15.711,10.592c6.092,2.575,12.563,3.884,19.236,3.884
	c6.673,0,13.142-1.309,19.236-3.884c5.885-2.487,11.169-6.054,15.708-10.592c4.538-4.538,8.103-9.823,10.592-15.708
	c2.577-6.093,3.885-12.563,3.885-19.237C99.421,43.328,98.113,36.856,95.536,30.764z"/>
<linearGradient id="SVGID_2_" gradientUnits="userSpaceOnUse" x1="84.9658" y1="12.9004" x2="0.2335" y2="102.808">
	<stop  offset="0" style="stop-color:#5A3D1B"/>
	<stop  offset="0.5449" style="stop-color:#FEDE58"/>
	<stop  offset="1" style="stop-color:#5A3D1B"/>
</linearGradient>
<path fill="url(#SVGID_2_)" d="M96.072,30.539c-2.52-5.954-6.124-11.303-10.717-15.894c-4.591-4.591-9.937-8.196-15.892-10.714
	C63.299,1.324,56.751,0,50,0c-6.751,0-13.296,1.324-19.462,3.931c-5.955,2.518-11.302,6.124-15.894,10.714
	c-4.591,4.591-8.198,9.94-10.717,15.894C1.323,36.705,0,43.251,0,50.003C0,56.752,1.323,63.3,3.928,69.464
	c2.52,5.955,6.126,11.301,10.717,15.895c4.591,4.59,9.939,8.195,15.894,10.712c6.166,2.609,12.71,3.931,19.462,3.931
	c6.75,0,13.298-1.321,19.463-3.931c5.955-2.517,11.301-6.122,15.892-10.712c4.593-4.594,8.197-9.939,10.717-15.895
	C98.68,63.3,100,56.752,100,50.003C100,43.251,98.68,36.705,96.072,30.539z M69.116,95.248C63.06,97.809,56.631,99.107,50,99.107
	c-6.628,0-13.06-1.299-19.115-3.859c-5.847-2.473-11.098-6.014-15.608-10.522c-4.512-4.512-8.051-9.763-10.524-15.611
	c-2.56-6.052-3.858-12.483-3.858-19.111c0-6.631,1.298-13.063,3.858-19.116c2.474-5.846,6.013-11.098,10.524-15.608
	c4.51-4.51,9.761-8.05,15.608-10.524C36.94,2.194,43.372,0.896,50,0.896c6.63,0,13.059,1.299,19.116,3.859
	c5.846,2.474,11.098,6.014,15.608,10.524c4.51,4.51,8.05,9.762,10.523,15.608c2.56,6.054,3.856,12.485,3.856,19.116
	c0,6.628-1.297,13.06-3.856,19.111c-2.474,5.849-6.014,11.1-10.523,15.611C80.214,89.234,74.962,92.775,69.116,95.248z"/>
<linearGradient id="SVGID_3_" gradientUnits="userSpaceOnUse" x1="49.9995" y1="4.4702" x2="49.9995" y2="106.2645">
	<stop  offset="0.0303" style="stop-color:#FFFFFF"/>
	<stop  offset="0.3455" style="stop-color:#F9D876"/>
	<stop  offset="1" style="stop-color:#BA7418"/>
</linearGradient>
<path fill="url(#SVGID_3_)" d="M73.665,74.183c6.053-6.19,9.795-14.738,9.795-24.182c0-9.445-3.742-17.995-9.796-24.184
	C67.565,19.846,59.212,16.164,50,16.164c-9.211,0-17.562,3.68-23.663,9.651c-6.054,6.191-9.798,14.74-9.798,24.186
	c0,9.443,3.744,17.994,9.797,24.186c6.102,5.967,14.452,9.65,23.664,9.65S67.565,80.153,73.665,74.183z M19.547,50.001
	c0-16.819,13.635-30.454,30.453-30.454c16.817,0,30.453,13.635,30.453,30.454c0,16.818-13.636,30.453-30.453,30.453
	C33.183,80.454,19.547,66.819,19.547,50.001z"/>
<linearGradient id="SVGID_4_" gradientUnits="userSpaceOnUse" x1="72.0107" y1="26.645" x2="18.6731" y2="83.2404">
	<stop  offset="0" style="stop-color:#5A3D1B"/>
	<stop  offset="0.5449" style="stop-color:#FEDE58"/>
	<stop  offset="1" style="stop-color:#5A3D1B"/>
</linearGradient>
<path fill="url(#SVGID_4_)" d="M79.002,37.749c-1.584-3.747-3.854-7.114-6.746-10.005c-2.89-2.889-6.254-5.159-10.003-6.743
	c-3.881-1.643-8.005-2.475-12.252-2.475c-4.25,0-8.37,0.832-12.251,2.475c-3.748,1.584-7.115,3.854-10.004,6.743
	c-2.89,2.891-5.161,6.258-6.747,10.005c-1.64,3.881-2.473,8.001-2.473,12.252c0,4.246,0.833,8.369,2.473,12.251
	c1.586,3.747,3.856,7.112,6.747,10.005c2.889,2.889,6.256,5.159,10.004,6.744c3.881,1.64,8.001,2.473,12.251,2.473
	c4.248,0,8.372-0.833,12.252-2.473c3.749-1.585,7.113-3.855,10.003-6.744c2.892-2.893,5.162-6.258,6.746-10.005
	c1.643-3.882,2.474-8.005,2.474-12.251C81.476,45.75,80.645,41.629,79.002,37.749z M62.033,78.482
	c-3.812,1.611-7.859,2.429-12.033,2.429s-8.221-0.817-12.032-2.429c-3.681-1.557-6.987-3.784-9.826-6.625
	c-2.84-2.84-5.068-6.145-6.625-9.824c-1.612-3.813-2.429-7.86-2.429-12.032c0-4.176,0.817-8.224,2.429-12.033
	c1.557-3.679,3.785-6.987,6.625-9.825c2.838-2.839,6.145-5.068,9.826-6.625c3.811-1.612,7.858-2.431,12.032-2.431
	s8.221,0.819,12.033,2.431c3.68,1.556,6.987,3.786,9.824,6.625c2.84,2.838,5.069,6.146,6.625,9.825
	c1.611,3.809,2.429,7.857,2.429,12.033c0,4.172-0.817,8.22-2.429,12.032c-1.556,3.68-3.785,6.984-6.625,9.824
	C69.021,74.698,65.713,76.926,62.033,78.482z"/>
<linearGradient id="SVGID_5_" gradientUnits="userSpaceOnUse" x1="73.5234" y1="33.7798" x2="32.5595" y2="62.0276">
	<stop  offset="0" style="stop-color:#5A3D1B"/>
	<stop  offset="0.5449" style="stop-color:#FEDE58"/>
	<stop  offset="1" style="stop-color:#5A3D1B"/>
</linearGradient>
<path fill="url(#SVGID_5_)" d="M79.872,37.38c-1.634-3.859-3.971-7.327-6.948-10.304c-2.978-2.976-6.445-5.314-10.305-6.947
	c-3.996-1.689-8.242-2.548-12.619-2.548c-4.376,0-8.622,0.859-12.618,2.548c-3.861,1.633-7.328,3.972-10.306,6.947
	c-2.977,2.978-5.314,6.445-6.947,10.304c-1.691,3.998-2.548,8.242-2.548,12.621c0,4.375,0.857,8.62,2.548,12.618
	c1.632,3.861,3.97,7.326,6.947,10.307c2.978,2.976,6.445,5.312,10.306,6.947c3.996,1.687,8.242,2.544,12.618,2.544
	c4.376,0,8.623-0.857,12.619-2.544c3.859-1.636,7.327-3.972,10.305-6.947c2.978-2.98,5.314-6.445,6.948-10.307
	c1.689-3.998,2.548-8.243,2.548-12.618C82.42,45.623,81.562,41.378,79.872,37.38z M62.394,79.336
	c-3.927,1.66-8.093,2.503-12.393,2.503c-4.298,0-8.469-0.843-12.393-2.503c-3.791-1.604-7.198-3.897-10.121-6.823
	c-2.924-2.924-5.219-6.327-6.822-10.12c-1.661-3.926-2.503-8.095-2.503-12.392c0-4.3,0.842-8.468,2.503-12.396
	c1.603-3.79,3.898-7.194,6.822-10.119c2.923-2.923,6.33-5.219,10.121-6.824c3.924-1.659,8.095-2.501,12.393-2.501
	c4.3,0,8.466,0.842,12.393,2.501c3.791,1.605,7.197,3.901,10.119,6.824c2.926,2.924,5.22,6.329,6.824,10.119
	c1.659,3.928,2.503,8.096,2.503,12.396c0,4.297-0.844,8.466-2.503,12.392c-1.604,3.793-3.898,7.196-6.824,10.12
	C69.591,75.438,66.185,77.732,62.394,79.336z"/>
<path fill="#2C1E14" d="M50.812,26.43l-0.81-0.585l-0.805,0.589l0.308-0.948l-0.811-0.583l0.999-0.004l0.306-0.95l0.308,0.95
	l1-0.005l-0.806,0.589L50.812,26.43z M50.501,75.101l0.806-0.59l-1,0.005l-0.308-0.951l-0.306,0.953h-0.999l0.811,0.585
	l-0.308,0.949l0.805-0.586l0.81,0.583L50.501,75.101z M74.519,50.5l0.589,0.804l-0.005-0.997l0.951-0.308l-0.953-0.309L75.1,48.693
	l-0.585,0.809l-0.948-0.307l0.587,0.808l-0.582,0.808L74.519,50.5z M24.899,50.5l0.588,0.804l-0.003-0.997l0.95-0.308l-0.952-0.309
	l-0.001-0.997l-0.584,0.809l-0.949-0.307l0.588,0.808l-0.583,0.808L24.899,50.5z M67.689,33.018l0.987,0.153l-0.711-0.704
	l0.455-0.889l-0.89,0.455l-0.708-0.705l0.16,0.984l-0.887,0.457l0.984,0.154l0.159,0.983L67.689,33.018z M32.606,68.103l0.984,0.153
	l-0.709-0.702l0.454-0.891l-0.889,0.455l-0.707-0.703l0.158,0.985l-0.887,0.455l0.986,0.152l0.16,0.985L32.606,68.103z
	 M66.983,67.688l-0.153,0.985l0.704-0.708l0.891,0.454l-0.457-0.889l0.704-0.709l-0.984,0.161l-0.455-0.888l-0.155,0.984
	l-0.982,0.159L66.983,67.688z M31.899,32.604l-0.153,0.985l0.704-0.708l0.889,0.453l-0.457-0.89l0.705-0.706l-0.984,0.161
	l-0.455-0.887l-0.156,0.984l-0.983,0.158L31.899,32.604z M59.772,27.507l0.969-0.238l-0.926-0.376l0.076-0.996l-0.645,0.765
	l-0.925-0.379l0.527,0.85l-0.644,0.761l0.969-0.238l0.524,0.845L59.772,27.507z M40.933,73.411l0.967-0.238l-0.925-0.375
	l0.077-0.998l-0.646,0.765l-0.925-0.377l0.528,0.85l-0.644,0.761l0.968-0.239l0.527,0.847L40.933,73.411z M72.493,59.771
	l0.237,0.968l0.376-0.926l0.996,0.075l-0.765-0.644l0.378-0.924l-0.848,0.526l-0.762-0.646l0.237,0.971l-0.846,0.525L72.493,59.771z
	 M26.589,40.932l0.238,0.967l0.376-0.927l0.997,0.077l-0.765-0.646l0.377-0.924l-0.848,0.528l-0.762-0.645l0.237,0.97l-0.846,0.526
	L26.589,40.932z M72.814,41.006l0.853,0.517l-0.389-0.921l0.758-0.65l-0.996,0.083l-0.386-0.919l-0.227,0.972l-0.994,0.084
	l0.853,0.516l-0.228,0.971L72.814,41.006z M27.034,60.142l0.853,0.515l-0.389-0.919l0.758-0.649l-0.996,0.085l-0.387-0.921
	l-0.227,0.973l-0.994,0.083l0.854,0.517l-0.226,0.971L27.034,60.142z M58.996,72.813l-0.517,0.853l0.92-0.389l0.651,0.759
	l-0.084-0.996l0.919-0.388l-0.971-0.225l-0.085-0.996l-0.515,0.854l-0.973-0.227L58.996,72.813z M39.859,27.036l-0.516,0.852
	l0.92-0.39l0.65,0.76l-0.084-0.997l0.92-0.387l-0.971-0.227l-0.084-0.994l-0.516,0.853l-0.971-0.227L39.859,27.036z M20.132,84.503
	c0.849,0.734,1.707,1.093,2.576,1.073s1.685-0.471,2.448-1.353l3.933-4.543l-2.139-1.853l-3.921,4.529
	c-0.215,0.249-0.458,0.382-0.725,0.398s-0.519-0.076-0.752-0.279c-0.296-0.256-0.508-0.624-0.636-1.104l-2.263,0.859
	C18.819,83.036,19.312,83.793,20.132,84.503z M26.55,89.172l0.83-0.787l2.928,1.654l-0.247,1.117l2.791,1.577l1.594-9.824
	l-3.094-1.749l-7.593,6.435L26.55,89.172z M31.534,84.45l-0.676,3.073l-1.606-0.908L31.534,84.45z M35.569,92.327
	c0.692,1.132,1.75,1.897,3.171,2.297c0.557,0.156,1.093,0.223,1.608,0.2c0.516-0.024,0.974-0.123,1.373-0.3
	c0.399-0.175,0.747-0.372,1.04-0.592c0.293-0.219,0.559-0.474,0.797-0.763l-2.036-1.753c-0.221,0.331-0.53,0.582-0.928,0.751
	s-0.794,0.198-1.189,0.087c-0.645-0.181-1.108-0.548-1.388-1.1c-0.281-0.552-0.33-1.15-0.148-1.796
	c0.181-0.646,0.535-1.131,1.062-1.456s1.113-0.396,1.758-0.216c0.398,0.112,0.723,0.345,0.972,0.695
	c0.25,0.352,0.382,0.726,0.398,1.124l2.654-0.449c-0.12-0.82-0.44-1.572-0.959-2.257c-0.521-0.685-1.319-1.179-2.399-1.481
	c-1.426-0.401-2.727-0.301-3.905,0.301c-1.177,0.602-1.958,1.589-2.344,2.962C34.722,89.946,34.877,91.195,35.569,92.327z
	 M48.038,95.952l0.082-2.589l0.541-0.681l1.994,3.354l3.444,0.108l-3.525-5.11l3.669-4.228l-3.457-0.109l-2.564,3.421l0.11-3.498
	l-2.828-0.09l-0.296,9.333L48.038,95.952z M58.773,95.291l-0.593-2.886l2.113-0.435c1.029-0.211,1.773-0.676,2.23-1.391
	c0.457-0.717,0.595-1.518,0.412-2.404c-0.185-0.896-0.628-1.585-1.331-2.064c-0.703-0.479-1.57-0.612-2.602-0.4l-4.882,1.003
	l1.879,9.146L58.773,95.291z M57.39,88.555l1.75-0.359c0.249-0.051,0.463-0.03,0.643,0.063s0.293,0.258,0.342,0.495
	c0.047,0.228,0.005,0.419-0.125,0.573c-0.131,0.155-0.319,0.258-0.563,0.308l-1.75,0.36L57.39,88.555z M70.729,91.512
	c1.306-0.644,2.199-1.581,2.68-2.813c0.48-1.23,0.403-2.491-0.232-3.781s-1.588-2.12-2.857-2.489
	c-1.269-0.368-2.556-0.231-3.862,0.412c-1.306,0.644-2.199,1.581-2.68,2.813c-0.48,1.23-0.403,2.491,0.232,3.781
	s1.588,2.119,2.857,2.488C68.136,92.292,69.423,92.155,70.729,91.512z M67.545,85.049c0.595-0.293,1.18-0.327,1.752-0.102
	c0.573,0.225,1.009,0.638,1.305,1.239s0.358,1.198,0.188,1.79c-0.171,0.592-0.554,1.034-1.148,1.327
	c-0.596,0.293-1.179,0.327-1.752,0.102c-0.573-0.225-1.008-0.638-1.305-1.239s-0.358-1.198-0.188-1.79
	C66.567,85.784,66.95,85.342,67.545,85.049z M74.075,81.199l4.385,5.298l2.18-1.805l-4.384-5.298l1.921-1.591l-1.569-1.896
	l-6.028,4.992l1.569,1.896L74.075,81.199z M39.873,15.081l-0.944-2.272l-4.034,1.677l-0.394-0.947l3.945-1.64l-0.944-2.272
	l-3.946,1.64l-0.357-0.858l4.034-1.677l-0.944-2.272l-6.647,2.763l3.584,8.623L39.873,15.081z M41.454,13.727
	c0.877,0.61,2.069,0.802,3.574,0.576c1.505-0.227,2.585-0.76,3.243-1.601c0.657-0.84,0.896-1.86,0.715-3.059l-0.816-5.428
	L45.33,4.642l0.808,5.373c0.07,0.462-0.023,0.866-0.278,1.212c-0.255,0.347-0.656,0.561-1.202,0.643
	c-0.551,0.083-1-0.003-1.348-0.259c-0.348-0.255-0.556-0.614-0.625-1.076l-0.809-5.373L39.05,5.586l0.818,5.442
	C40.047,12.217,40.576,13.117,41.454,13.727z M53.338,13.811l0.312-2.923l1.018,0.108l0.962,3.059l3.201,0.341l-1.336-3.463
	c0.481-0.173,0.911-0.475,1.29-0.904c0.378-0.43,0.605-1.007,0.683-1.732c0.098-0.911-0.116-1.701-0.641-2.371
	c-0.524-0.67-1.31-1.061-2.356-1.173l-4.955-0.529l-0.991,9.285L53.338,13.811z M54.067,6.973l1.709,0.182
	c0.262,0.028,0.474,0.115,0.634,0.26c0.16,0.146,0.229,0.334,0.203,0.565c-0.025,0.24-0.133,0.413-0.322,0.519
	c-0.189,0.106-0.413,0.145-0.671,0.118l-1.708-0.182L54.067,6.973z M63.651,16.309c1.36,0.521,2.654,0.539,3.884,0.054
	s2.102-1.398,2.615-2.741c0.514-1.343,0.476-2.605-0.116-3.787s-1.568-2.033-2.928-2.553c-1.36-0.521-2.655-0.539-3.884-0.054
	c-1.23,0.484-2.102,1.398-2.616,2.741c-0.514,1.343-0.475,2.605,0.117,3.787S62.291,15.789,63.651,16.309z M66.227,9.58
	c0.619,0.237,1.041,0.642,1.266,1.216c0.224,0.574,0.217,1.174-0.022,1.8c-0.24,0.626-0.635,1.078-1.186,1.354
	c-0.55,0.277-1.134,0.297-1.753,0.061c-0.619-0.237-1.042-0.643-1.266-1.216c-0.225-0.574-0.217-1.173,0.022-1.8
	c0.239-0.626,0.635-1.078,1.185-1.355S65.607,9.343,66.227,9.58z M64.613,58.476l0.187-0.32l-6.138-2.969l-0.153,0.3
	c-0.632,1.23-1.568,2.248-2.787,3.022c-1.217,0.772-2.56,1.164-3.988,1.164c-1.762,0-3.37-0.438-4.782-1.303
	c-1.251-0.766-2.254-1.794-2.987-3.061h10.863v-4.115H42.71c-0.039-0.434-0.059-0.787-0.059-1.055c0-0.495,0.017-0.894,0.045-1.19
	h12.131v-4.07H44.026c0.752-1.238,1.75-2.242,2.972-2.994c1.383-0.849,2.977-1.28,4.736-1.28c1.429,0,2.77,0.399,3.985,1.184
	c1.222,0.792,2.16,1.804,2.791,3.006l0.155,0.297l6.13-3.013l-0.178-0.317c-2.82-4.995-7.155-7.527-12.884-7.527
	c-3.721,0-7.034,0.992-9.847,2.947c-2.749,1.913-4.663,4.501-5.693,7.697h-2.437v4.07h1.645c-0.014,0.307-0.021,0.701-0.021,1.19
	c0,0.43,0.006,0.779,0.02,1.055h-1.644v4.115h2.391c1.031,3.226,2.954,5.836,5.716,7.763c2.826,1.971,6.147,2.971,9.871,2.971
	C57.372,66.043,61.705,63.496,64.613,58.476z"/>
<path fill="#F9D876" d="M22.64,85.729c-0.879,0-1.756-0.373-2.608-1.11c-0.842-0.729-1.356-1.521-1.528-2.354l-0.026-0.128
	l2.542-0.965l0.043,0.163c0.119,0.446,0.316,0.793,0.588,1.027c0.189,0.165,0.383,0.244,0.592,0.244l0.051-0.002
	c0.228-0.014,0.43-0.127,0.62-0.346l4.02-4.645l2.37,2.052l-4.032,4.658c-0.79,0.911-1.651,1.384-2.56,1.405H22.64z M18.831,82.327
	c0.183,0.722,0.653,1.414,1.4,2.061c0.794,0.688,1.605,1.036,2.409,1.036h0.064c0.82-0.019,1.606-0.456,2.337-1.3l3.833-4.428
	l-1.909-1.653l-3.821,4.414c-0.242,0.28-0.521,0.432-0.831,0.451c-0.307,0.015-0.598-0.088-0.862-0.317
	c-0.284-0.245-0.497-0.587-0.635-1.018L18.831,82.327z M32.968,92.974l-3.079-1.74l0.247-1.117l-2.732-1.544l-0.83,0.788l-3.08-1.74
	l7.84-6.646l3.28,1.854l-0.018,0.104L32.968,92.974z M30.234,91.079l2.502,1.414l1.542-9.504l-2.909-1.645l-7.346,6.226l2.503,1.414
	l0.83-0.788l3.124,1.766L30.234,91.079z M30.962,87.757l-1.965-1.109l2.792-2.648L30.962,87.757z M29.505,86.584l1.248,0.706
	l0.525-2.388L29.505,86.584z M40.148,94.98c-0.465,0-0.952-0.07-1.448-0.21c-1.454-0.408-2.55-1.204-3.261-2.364
	c-0.712-1.164-0.874-2.465-0.479-3.865c0.396-1.408,1.21-2.438,2.422-3.057c1.207-0.616,2.56-0.722,4.016-0.312
	c1.106,0.311,1.939,0.827,2.479,1.535c0.534,0.704,0.867,1.487,0.989,2.327l0.021,0.147l-2.971,0.503l-0.007-0.173
	c-0.015-0.367-0.139-0.718-0.369-1.042c-0.232-0.324-0.523-0.532-0.891-0.637c-0.599-0.168-1.148-0.102-1.637,0.199
	c-0.491,0.303-0.826,0.764-0.995,1.367c-0.17,0.604-0.124,1.172,0.137,1.686c0.262,0.518,0.686,0.852,1.294,1.023
	c0.359,0.099,0.724,0.073,1.088-0.082c0.369-0.156,0.658-0.391,0.861-0.695l0.096-0.144l2.278,1.963l-0.094,0.115
	c-0.245,0.297-0.522,0.563-0.823,0.788c-0.301,0.225-0.662,0.43-1.071,0.609c-0.414,0.183-0.894,0.287-1.427,0.312
	C40.287,94.979,40.218,94.98,40.148,94.98z M39.705,85.23c-0.768,0-1.502,0.177-2.185,0.525c-1.132,0.579-1.895,1.544-2.267,2.867
	c-0.37,1.315-0.22,2.535,0.447,3.624c0.668,1.093,1.705,1.844,3.082,2.23c0.539,0.151,1.064,0.218,1.56,0.194
	c0.496-0.022,0.939-0.119,1.319-0.286c0.388-0.171,0.728-0.364,1.01-0.575c0.243-0.182,0.469-0.392,0.673-0.624L41.55,91.64
	c-0.229,0.288-0.528,0.513-0.895,0.669c-0.428,0.181-0.863,0.212-1.29,0.094c-0.686-0.193-1.184-0.589-1.483-1.179
	c-0.297-0.584-0.35-1.226-0.158-1.905c0.19-0.68,0.569-1.199,1.128-1.544c0.561-0.347,1.196-0.425,1.879-0.232
	c0.431,0.121,0.786,0.374,1.055,0.753c0.229,0.322,0.368,0.67,0.413,1.034l2.341-0.396c-0.131-0.733-0.435-1.42-0.906-2.04
	c-0.498-0.654-1.278-1.135-2.319-1.428C40.76,85.31,40.219,85.23,39.705,85.23z M54.396,96.307l-3.83-0.122l-1.923-3.234
	l-0.373,0.469l-0.085,2.69l-3.133-0.099l0.305-9.638l3.133,0.1l-0.1,3.168l2.322-3.098l3.856,0.122l-3.803,4.38L54.396,96.307z
	 M50.743,95.887l3.059,0.097l-3.42-4.96l3.536-4.074l-3.057-0.097l-2.806,3.742l0.121-3.828l-2.524-0.08l-0.287,9.029l2.525,0.08
	l0.079-2.488l0.71-0.893L50.743,95.887z M55.883,96.04l-0.031-0.148l-1.909-9.296l5.031-1.034c1.067-0.219,1.982-0.075,2.718,0.424
	c0.733,0.5,1.202,1.227,1.395,2.159c0.189,0.923,0.044,1.77-0.434,2.518c-0.479,0.749-1.261,1.239-2.327,1.458l-1.965,0.403
	l0.593,2.886L55.883,96.04z M54.303,86.832l1.817,8.849l2.474-0.508l-0.593-2.886l2.263-0.466c0.982-0.201,1.7-0.646,2.132-1.323
	c0.434-0.679,0.565-1.449,0.392-2.291c-0.175-0.854-0.602-1.516-1.268-1.97c-0.665-0.453-1.502-0.58-2.485-0.377L54.303,86.832z
	 M57.567,90.174l-0.357-1.737l1.898-0.391c0.284-0.058,0.534-0.031,0.744,0.078c0.221,0.115,0.362,0.317,0.42,0.599
	c0.058,0.274,0.004,0.511-0.157,0.703c-0.152,0.181-0.371,0.301-0.649,0.358L57.567,90.174z M57.569,88.674l0.234,1.142l1.602-0.329
	c0.212-0.044,0.368-0.128,0.478-0.257c0.1-0.118,0.13-0.265,0.093-0.445c-0.04-0.191-0.126-0.319-0.264-0.391
	c-0.148-0.078-0.328-0.093-0.541-0.049L57.569,88.674z M68.262,92.277c-0.479,0-0.963-0.07-1.438-0.208
	c-1.305-0.38-2.298-1.243-2.95-2.567c-0.653-1.323-0.732-2.637-0.238-3.904c0.492-1.262,1.42-2.234,2.755-2.894
	c1.332-0.657,2.672-0.8,3.972-0.421c1.307,0.38,2.299,1.244,2.951,2.567s0.731,2.637,0.237,3.904
	c-0.491,1.262-1.418,2.235-2.753,2.894C69.95,92.065,69.097,92.277,68.262,92.277z M68.925,82.38c-0.788,0-1.595,0.201-2.4,0.598
	c-1.265,0.623-2.141,1.542-2.605,2.73c-0.462,1.185-0.386,2.416,0.227,3.659c0.614,1.244,1.544,2.055,2.765,2.409
	c1.227,0.357,2.487,0.223,3.753-0.401c1.265-0.624,2.142-1.543,2.604-2.73c0.463-1.185,0.386-2.416-0.228-3.659
	c-0.612-1.244-1.542-2.056-2.762-2.41C69.831,82.445,69.376,82.38,68.925,82.38z M68.644,89.705c-0.271,0-0.544-0.054-0.81-0.158
	c-0.606-0.238-1.072-0.681-1.386-1.314c-0.311-0.632-0.379-1.271-0.198-1.898c0.184-0.632,0.596-1.11,1.229-1.422
	c0.63-0.311,1.265-0.347,1.875-0.106c0.607,0.238,1.073,0.681,1.385,1.314c0.312,0.633,0.379,1.272,0.198,1.898
	c-0.182,0.632-0.596,1.11-1.227,1.422C69.354,89.616,68.994,89.705,68.644,89.705z M68.543,84.952c-0.304,0-0.618,0.079-0.931,0.233
	c-0.56,0.275-0.909,0.679-1.069,1.232c-0.158,0.553-0.099,1.118,0.179,1.681s0.688,0.955,1.224,1.166
	c0.531,0.208,1.076,0.176,1.63-0.098c0.559-0.275,0.909-0.679,1.069-1.232c0.16-0.56,0.102-1.108-0.18-1.681
	c-0.277-0.563-0.688-0.955-1.224-1.165C69.012,84.998,68.776,84.952,68.543,84.952z M78.439,86.711l-4.385-5.298l-1.927,1.596
	l-1.764-2.13l6.264-5.186l1.763,2.131l-1.921,1.591l4.384,5.297L78.439,86.711z M74.096,80.985l4.384,5.297l1.946-1.61l-4.385-5.298
	l1.922-1.591l-1.376-1.661l-5.794,4.797l1.375,1.662L74.096,80.985z M33.144,18.042l-3.701-8.903l6.928-2.88l1.061,2.553
	l-4.034,1.677l0.24,0.578l3.946-1.64l1.06,2.553L34.7,13.62l0.277,0.666l4.034-1.677l1.061,2.553L33.144,18.042z M29.841,9.303
	l3.467,8.341l6.366-2.646l-0.828-1.992l-4.034,1.677l-0.51-1.228l3.944-1.64L37.42,9.825l-3.946,1.64l-0.473-1.139l4.034-1.677
	l-0.828-1.992L29.841,9.303z M43.874,14.546c-1.001,0-1.844-0.233-2.507-0.694c-0.91-0.632-1.465-1.574-1.649-2.802l-0.841-5.592
	l3.127-0.47l0.831,5.523c0.063,0.424,0.248,0.743,0.565,0.976c0.316,0.232,0.723,0.309,1.235,0.231
	c0.502-0.076,0.873-0.271,1.102-0.582c0.233-0.316,0.314-0.676,0.25-1.1l-0.83-5.523l3.14-0.473l0.839,5.579
	c0.186,1.237-0.065,2.305-0.746,3.176c-0.679,0.869-1.803,1.426-3.34,1.657C44.637,14.515,44.241,14.546,43.874,14.546z
	 M39.223,5.714l0.796,5.291c0.172,1.142,0.684,2.015,1.521,2.597c0.841,0.585,2.007,0.769,3.464,0.55
	c1.458-0.219,2.516-0.739,3.146-1.544c0.627-0.802,0.857-1.792,0.685-2.943l-0.793-5.278L45.503,4.77l0.785,5.223
	c0.076,0.5-0.027,0.946-0.306,1.325c-0.278,0.378-0.716,0.615-1.302,0.703c-0.59,0.089-1.082-0.008-1.461-0.287
	c-0.38-0.28-0.611-0.675-0.685-1.177l-0.786-5.223L39.223,5.714z M59.062,14.574l-3.548-0.378l-0.962-3.059l-0.767-0.082
	l-0.313,2.922l-3.116-0.332l1.022-9.588l5.106,0.545c1.085,0.116,1.912,0.53,2.461,1.23c0.547,0.699,0.773,1.534,0.673,2.481
	c-0.081,0.754-0.323,1.365-0.722,1.816c-0.355,0.404-0.761,0.703-1.207,0.89L59.062,14.574z M55.744,13.914l2.854,0.305
	l-1.302-3.376l0.146-0.053c0.454-0.163,0.866-0.453,1.227-0.861c0.354-0.403,0.572-0.958,0.646-1.647
	c0.093-0.866-0.112-1.626-0.608-2.262c-0.496-0.633-1.254-1.008-2.254-1.115L51.65,4.393l-0.959,8.982l2.512,0.268l0.312-2.923
	l1.268,0.135L55.744,13.914z M55.775,8.777L55.775,8.777c-0.056,0-0.113-0.003-0.171-0.009l-1.859-0.198l0.188-1.764l1.859,0.198
	c0.294,0.031,0.536,0.132,0.721,0.298c0.197,0.181,0.282,0.414,0.252,0.694c-0.031,0.291-0.165,0.505-0.399,0.635
	C56.192,8.728,55.994,8.777,55.775,8.777z M54.079,8.299l1.558,0.166c0.047,0.005,0.094,0.008,0.139,0.008l0,0
	c0.166,0,0.314-0.036,0.441-0.107c0.147-0.082,0.225-0.21,0.246-0.402c0.02-0.184-0.03-0.323-0.155-0.437
	c-0.135-0.123-0.319-0.197-0.548-0.221L54.202,7.14L54.079,8.299z M65.713,16.866c-0.686,0-1.396-0.14-2.116-0.415
	c-1.39-0.532-2.402-1.416-3.009-2.627c-0.609-1.216-0.651-2.531-0.123-3.909c0.527-1.378,1.437-2.33,2.701-2.828
	c1.26-0.496,2.606-0.479,3.995,0.053c1.391,0.532,2.402,1.416,3.01,2.627c0.608,1.215,0.649,2.53,0.122,3.909
	c-0.527,1.378-1.436,2.33-2.702,2.828C66.983,16.744,66.352,16.866,65.713,16.866z M65.046,7.03c-0.601,0-1.196,0.114-1.768,0.339
	c-1.183,0.466-2.033,1.359-2.529,2.654c-0.496,1.295-0.458,2.528,0.111,3.664c0.571,1.141,1.528,1.976,2.846,2.479
	c1.318,0.504,2.586,0.523,3.773,0.055c1.183-0.466,2.034-1.359,2.529-2.654c0.496-1.296,0.458-2.529-0.11-3.665
	c-0.571-1.141-1.529-1.975-2.847-2.479C66.369,7.162,65.693,7.03,65.046,7.03z M65.365,14.327L65.365,14.327
	c-0.288,0-0.587-0.059-0.889-0.174c-0.658-0.252-1.113-0.69-1.353-1.303c-0.238-0.607-0.23-1.249,0.022-1.909
	c0.252-0.66,0.676-1.144,1.258-1.437c0.585-0.295,1.22-0.318,1.877-0.066c0.658,0.252,1.114,0.69,1.353,1.302
	c0.238,0.608,0.229,1.25-0.021,1.91c-0.253,0.66-0.676,1.143-1.259,1.437C66.036,14.246,65.704,14.327,65.365,14.327z M65.393,9.568
	c-0.291,0-0.577,0.07-0.851,0.208c-0.514,0.258-0.887,0.687-1.111,1.274c-0.225,0.587-0.232,1.155-0.023,1.689
	c0.21,0.537,0.595,0.906,1.179,1.129c0.267,0.102,0.529,0.154,0.779,0.154l0,0c0.291,0,0.577-0.07,0.852-0.208
	c0.52-0.261,0.884-0.678,1.111-1.273c0.224-0.586,0.23-1.155,0.022-1.69c-0.21-0.537-0.595-0.906-1.179-1.129
	C65.905,9.62,65.643,9.568,65.393,9.568z M51.733,34.58c5.623,0,9.816,2.451,12.584,7.352l-5.503,2.706
	c-0.662-1.263-1.631-2.308-2.909-3.135c-1.278-0.827-2.668-1.24-4.172-1.24c-1.834,0-3.472,0.445-4.916,1.331
	c-1.444,0.888-2.571,2.098-3.382,3.63h11.048v3.382H42.397c-0.06,0.332-0.09,0.842-0.09,1.534c0,0.331,0.03,0.797,0.09,1.398h12.087
	v3.427H43.39c0.781,1.564,1.909,2.797,3.382,3.699c1.473,0.901,3.126,1.353,4.961,1.353c1.504,0,2.894-0.406,4.172-1.218
	s2.247-1.864,2.909-3.156l5.503,2.66c-2.857,4.932-7.053,7.396-12.584,7.396c-3.668,0-6.894-0.969-9.674-2.909
	c-2.781-1.938-4.667-4.547-5.659-7.825h-2.301v-3.427h1.669c-0.031-0.301-0.045-0.768-0.045-1.398c0-0.692,0.015-1.203,0.045-1.534
	h-1.669v-3.382h2.346c0.993-3.247,2.871-5.833,5.638-7.757C44.848,35.542,48.065,34.58,51.733,34.58 M51.733,33.893
	c-3.792,0-7.171,1.012-10.043,3.009c-2.743,1.909-4.674,4.476-5.746,7.635h-1.845h-0.687v0.687v3.382v0.688h0.687h0.946
	c-0.006,0.244-0.009,0.524-0.009,0.846c0,0.266,0.002,0.503,0.008,0.711h-0.945h-0.687v0.688v3.427v0.688h0.687h1.798
	c1.072,3.188,3.011,5.778,5.77,7.7c2.885,2.013,6.271,3.033,10.066,3.033c5.77,0,10.204-2.604,13.178-7.739l0.371-0.641
	l-0.665-0.323l-5.503-2.66l-0.605-0.292l-0.307,0.597c-0.602,1.177-1.499,2.149-2.666,2.892c-1.16,0.735-2.439,1.109-3.803,1.109
	c-1.697,0-3.245-0.421-4.602-1.252c-1.026-0.629-1.879-1.441-2.545-2.424h9.898h0.688v-0.688v-3.427v-0.688h-0.688H43.027
	c-0.021-0.282-0.032-0.52-0.032-0.711c0-0.328,0.006-0.61,0.02-0.846h11.469h0.688v-0.688v-3.382v-0.687h-0.688h-9.822
	c0.675-0.954,1.518-1.744,2.515-2.357c1.328-0.815,2.861-1.229,4.556-1.229c1.361,0,2.64,0.38,3.798,1.131
	c1.172,0.758,2.07,1.727,2.674,2.876l0.312,0.593l0.602-0.295l5.502-2.706l0.653-0.321l-0.358-0.634
	C62.03,36.483,57.596,33.893,51.733,33.893L51.733,33.893z"/>
</svg>
