<?xml version="1.0" encoding="utf-8"?>
<!-- Generator: Adobe Illustrator 16.0.0, SVG Export Plug-In . SVG Version: 6.00 Build 0)  -->
<!DOCTYPE svg PUBLIC "-//W3C//DTD SVG 1.1//EN" "http://www.w3.org/Graphics/SVG/1.1/DTD/svg11.dtd">
<svg version="1.1" id="Layer_1" xmlns="http://www.w3.org/2000/svg" xmlns:xlink="http://www.w3.org/1999/xlink" x="0px" y="0px"
	 width="100px" height="100px" viewBox="0 0 100 100" enable-background="new 0 0 100 100" xml:space="preserve">
<g display="none">
	<g display="inline">
		
			<radialGradient id="SVGID_1_" cx="160.8604" cy="-90.1675" r="97.7616" gradientTransform="matrix(0.9061 0 0 -0.9385 -94.7926 -55.118)" gradientUnits="userSpaceOnUse">
			<stop  offset="0" style="stop-color:#37A379"/>
			<stop  offset="0.5" style="stop-color:#209869"/>
			<stop  offset="1" style="stop-color:#007849"/>
		</radialGradient>
		<path fill="url(#SVGID_1_)" d="M0.761,50.276v-0.273c0-27.272,21.527-49.377,49.807-49.377c28.306,0,49.566,21.849,49.566,49.103
			v0.274c0,27.272-21.527,49.373-49.808,49.373C22.021,99.375,0.761,77.543,0.761,50.276z"/>
	</g>
	
		<radialGradient id="SVGID_2_" cx="107.2676" cy="-71.3691" r="67.5144" gradientTransform="matrix(1 0 0 -1 -56 -45)" gradientUnits="userSpaceOnUse">
		<stop  offset="0" style="stop-color:#FFFF8A"/>
		<stop  offset="0.5" style="stop-color:#FEDF00"/>
		<stop  offset="1" style="stop-color:#DEBF00"/>
	</radialGradient>
	<path display="inline" fill="url(#SVGID_2_)" d="M98.698,60.921c0.764-3.519,1.063-7.163,1.063-10.918v-0.275
		c0-3.643-0.264-7.177-0.973-10.587L51.12,8.661L1.596,40.338C1,43.466,0.761,46.694,0.761,50.002v0.275
		c0,3.206,0.262,6.325,0.814,9.35l49.573,31.716L98.698,60.921z"/>
	
		<radialGradient id="SVGID_3_" cx="108.9023" cy="-69.4897" r="52.3547" gradientTransform="matrix(1 0 0 -1 -56 -45)" gradientUnits="userSpaceOnUse">
		<stop  offset="0" style="stop-color:#1E4594"/>
		<stop  offset="0.5" style="stop-color:#002776"/>
		<stop  offset="1" style="stop-color:#001362"/>
	</radialGradient>
	<path display="inline" fill="url(#SVGID_3_)" d="M50.177,51.445h-13.07h-2.408c-3.608,0-6.536-2.928-6.536-6.535
		c0-3.611,2.927-6.536,6.536-6.536h2.408v-2.411c0-3.606,2.925-6.536,6.536-6.536c3.608,0,6.534,2.929,6.534,6.536v2.411V51.445z
		 M63.939,51.445h2.406c3.609,0,6.534-2.928,6.534-6.535c0-3.611-2.925-6.536-6.534-6.536h-2.406v-2.411
		c0-3.606-2.928-6.536-6.537-6.536s-6.535,2.929-6.535,6.536v2.411v13.071H63.939L63.939,51.445z M50.867,65.205v2.406
		c0,3.609,2.926,6.537,6.535,6.537s6.537-2.928,6.537-6.537v-2.406h2.406c3.609,0,6.534-2.926,6.534-6.536
		c0-3.608-2.925-6.536-6.534-6.536h-2.406H50.867V65.205z M37.107,52.133h-2.408c-3.608,0-6.536,2.928-6.536,6.536
		c0,3.61,2.927,6.536,6.536,6.536h2.408v2.406c0,3.609,2.925,6.537,6.536,6.537c3.608,0,6.534-2.928,6.534-6.537v-2.406V52.133
		H37.107z"/>
</g>
<g>
	<g>
		<defs>
			<path id="SVGID_4_" d="M0.2,50c0,27.6,22.3,49.899,49.8,49.799c27.5,0,49.8-22.301,49.8-49.799S77.5,0.2,50,0.2
				S0.2,22.501,0.2,50"/>
		</defs>
		<clipPath id="SVGID_5_">
			<use xlink:href="#SVGID_4_"  overflow="visible"/>
		</clipPath>
		
			<linearGradient id="SVGID_6_" gradientUnits="userSpaceOnUse" x1="-346.4067" y1="207.1289" x2="-345.4067" y2="207.1289" gradientTransform="matrix(99.6 0 0 99.6 34502.3281 -20580.0527)">
			<stop  offset="0" style="stop-color:#7F1416"/>
			<stop  offset="0.129" style="stop-color:#EA1D25"/>
			<stop  offset="0.1738" style="stop-color:#CB1E24"/>
			<stop  offset="0.2153" style="stop-color:#B51E23"/>
			<stop  offset="0.2419" style="stop-color:#AD1E23"/>
			<stop  offset="0.2657" style="stop-color:#B21E23"/>
			<stop  offset="0.2947" style="stop-color:#C11E24"/>
			<stop  offset="0.3262" style="stop-color:#DA1E25"/>
			<stop  offset="0.3412" style="stop-color:#E81E25"/>
			<stop  offset="0.4212" style="stop-color:#C91F24"/>
			<stop  offset="0.4946" style="stop-color:#B11F24"/>
			<stop  offset="0.5308" style="stop-color:#BA1F24"/>
			<stop  offset="0.5902" style="stop-color:#D31F25"/>
			<stop  offset="0.6237" style="stop-color:#E41F26"/>
			<stop  offset="0.6588" style="stop-color:#C91F25"/>
			<stop  offset="0.6917" style="stop-color:#B71F24"/>
			<stop  offset="0.7151" style="stop-color:#B01F24"/>
			<stop  offset="0.7371" style="stop-color:#B81F24"/>
			<stop  offset="0.7718" style="stop-color:#CF2124"/>
			<stop  offset="0.8065" style="stop-color:#EC2224"/>
			<stop  offset="0.8159" style="stop-color:#E42123"/>
			<stop  offset="0.8715" style="stop-color:#BA1C1E"/>
			<stop  offset="0.9218" style="stop-color:#9B181B"/>
			<stop  offset="0.9645" style="stop-color:#891619"/>
			<stop  offset="0.9946" style="stop-color:#821518"/>
			<stop  offset="1" style="stop-color:#821518"/>
		</linearGradient>
		<rect x="0.2" y="0.2" clip-path="url(#SVGID_5_)" fill="url(#SVGID_6_)" width="99.6" height="99.698"/>
	</g>
	<polygon fill="#FFFFFF" points="94.1,45.9 95.3,48.8 98.3,49 96,50.898 96.7,53.898 94.1,52.299 91.5,53.898 92.3,50.898 89.9,49 
		93,48.8 	"/>
	<polygon fill="#FFFFFF" points="5.8,45.9 7,48.8 10,49 7.7,50.898 8.399,53.898 5.8,52.299 3.2,53.898 4,50.898 1.6,49 4.7,48.8 	
		"/>
	<path fill="#FFFFFF" d="M50.4,11.4C71.773,11.4,89.1,28.727,89.1,50.1c0,21.373-17.326,38.699-38.699,38.699
		c-21.374,0-38.7-17.326-38.7-38.699C11.7,28.727,29.026,11.4,50.4,11.4"/>
	<path fill="#1B75BB" d="M50,86.6c-16,0-30.8-10.701-35.2-26.9C9.5,40.3,21,20.2,40.399,14.9c9.4-2.6,19.2-1.3,27.7,3.5
		c8.5,4.8,14.5,12.7,17.101,22.1C90.5,59.898,79,79.998,59.6,85.299C56.4,86.199,53.2,86.6,50,86.6 M40.6,15.9
		C21.7,21.1,10.6,40.6,15.7,59.498c5.199,18.9,24.699,30,43.6,24.9c18.9-5.199,30-24.699,24.9-43.598C81.7,31.7,75.8,24,67.6,19.3
		C59.3,14.6,49.8,13.4,40.6,15.9"/>
	<path fill="#224099" d="M29.5,73.898l-0.101-0.699H27.2l-0.4,0.699h-2.1l3.5-6h2.3l0.899,6H29.5z M29.1,69.699l-1,1.9h1.2
		L29.1,69.699z"/>
	<path fill="#224099" d="M31.8,71.799v-0.4l0.8-3.5h1.8l-0.8,3.5V71.6c0,0.398,0.3,0.799,1,0.799s1.101-0.5,1.2-1l0.8-3.5h1.8
		l-0.8,3.5c-0.3,1.4-1.2,2.6-3.1,2.6C32.7,73.998,31.8,73.1,31.8,71.799"/>
	<path fill="#224099" d="M38,72.898l1.1-1.299c0.4,0.5,1.3,0.898,2.101,0.898c0.3,0,0.5-0.199,0.5-0.299c0-0.5-2.9-0.5-2.9-2.201
		c0-1,0.9-2.1,2.6-2.1c1,0,2,0.301,2.601,1l-1.101,1.301c-0.5-0.5-1.3-0.701-1.8-0.701c-0.2,0-0.399,0.102-0.399,0.201
		c0,0.5,2.899,0.5,2.899,2.199c0,1.301-1,2.201-2.5,2.201C39.8,73.998,38.6,73.6,38,72.898"/>
	<polygon fill="#224099" points="44.7,73.898 45.7,69.498 44.1,69.498 44.5,67.898 49.5,67.898 49.1,69.498 47.5,69.498 
		46.5,73.898 	"/>
	<path fill="#224099" d="M52.1,73.898l-0.399-1.9H51l-0.4,1.9h-1.8l1.3-6H53c1.1,0,2,0.701,2,1.801s-0.7,1.9-1.5,2.199l0.6,2H52.1z
		 M52.5,70.498c0.4,0,0.7-0.199,0.7-0.5c0-0.299-0.2-0.398-0.5-0.398H51.6L51.4,70.498H52.5z"/>
	<path fill="#224099" d="M59,73.898l-0.1-0.699h-2.2l-0.4,0.699h-2.1l3.5-6H60l0.9,6H59z M58.6,69.699l-1,1.9h1.2L58.6,69.699z"/>
	<polygon fill="#224099" points="61.3,73.898 62.6,67.898 64.4,67.898 63.4,72.299 65.7,72.299 65.3,73.898 	"/>
	<polygon fill="#224099" points="66.1,73.898 67.4,67.898 69.2,67.898 67.9,73.898 	"/>
	<path fill="#224099" d="M72.9,73.898L72.8,73.199h-2.2L70.2,73.898H68.1l3.5-6H74l0.9,6H72.9z M72.6,69.699l-1,1.9h1.2L72.6,69.699
		z"/>
	<polygon fill="#FFFFFF" points="51,4.7 50.1,2.5 49.2,4.7 46.9,4.9 48.7,6.4 48.1,8.7 50.1,7.4 52.1,8.7 51.5,6.4 53.4,4.9 	"/>
	<polygon fill="#FFFFFF" points="37.7,6.4 35.399,7.1 33.8,5.3 33.7,7.7 31.6,8.6 33.8,9.4 34,11.8 35.5,9.9 37.8,10.4 36.5,8.5 	
		"/>
	<polygon fill="#FFFFFF" points="23.399,13.2 21.5,14.7 19.399,13.5 20.2,15.8 18.5,17.4 20.899,17.4 21.899,19.5 22.6,17.3 25,17 
		23,15.6 	"/>
	<polygon fill="#FFFFFF" points="9.8,26.1 10.6,28.3 8.899,30 11.3,29.9 12.399,32.1 13,29.8 15.399,29.4 13.399,28.1 13.8,25.7 
		11.899,27.2 	"/>
	<polygon fill="#FFFFFF" points="87.8,25.1 87.3,27.4 85,28 87.1,29.1 86.9,31.5 88.6,29.9 90.8,30.9 89.8,28.7 91.4,26.9 89,27.1 	
		"/>
	<polygon fill="#FFFFFF" points="14.899,72.398 12.8,71.299 12.899,68.898 11.2,70.6 9,69.799 10,71.898 8.5,73.799 10.899,73.398 
		12.2,75.398 12.6,72.998 	"/>
	<polygon fill="#FFFFFF" points="19.1,86.498 21.2,85.299 23.1,86.799 22.7,84.398 24.6,82.998 22.3,82.699 21.5,80.498 20.5,82.6 
		18.1,82.6 19.899,84.199 	"/>
	<polygon fill="#FFFFFF" points="33.399,94.799 35,92.998 37.3,93.699 36,91.699 37.399,89.699 35.1,90.199 33.6,88.299 
		33.399,90.699 31.2,91.498 33.3,92.398 	"/>
	<polygon fill="#FFFFFF" points="48.8,95.498 49.7,97.799 50.5,95.498 52.9,95.398 51.1,93.898 51.7,91.6 49.7,92.898 47.7,91.6 
		48.3,93.898 46.399,95.398 	"/>
	<polygon fill="#FFFFFF" points="62.1,93.799 64.4,93.199 66,94.998 66,92.6 68.2,91.6 66,90.799 65.7,88.498 64.3,90.398 
		62,89.799 63.3,91.799 	"/>
	<polygon fill="#FFFFFF" points="76.3,86.998 78.2,85.6 80.3,86.699 79.6,84.498 81.3,82.898 78.9,82.898 77.9,80.699 77.2,82.998 
		74.8,83.299 76.8,84.699 	"/>
	<polygon fill="#FFFFFF" points="87,73.398 87.4,75.799 88.7,73.799 91,74.1 89.5,72.299 90.6,70.1 88.4,70.998 86.7,69.299 
		86.8,71.699 84.7,72.799 	"/>
	<polygon fill="#FFFFFF" points="80.7,13.8 78.6,14.9 76.7,13.5 77.1,15.8 75.2,17.2 77.5,17.5 78.2,19.8 79.3,17.7 81.6,17.7 
		79.9,16 	"/>
	<polygon fill="#FFFFFF" points="66.4,5.5 64.8,7.2 62.5,6.6 63.7,8.6 62.4,10.6 64.7,10.1 66.2,11.9 66.4,9.6 68.6,8.8 66.4,7.8 	
		"/>
	<path fill="#224099" d="M30,35.4l-4.2-4.9l2.1-1.8C29,27.7,30.2,28,31,28.9c0.8,0.9,0.899,2.1-0.3,3.1L30,32.6l1.399,1.6L30,35.4z
		 M29.6,30.1c-0.2-0.3-0.6-0.3-0.8-0.1l-0.6,0.5l0.8,0.9l0.6-0.5C29.8,30.7,29.8,30.4,29.6,30.1"/>
	<path fill="#224099" d="M32.2,29.3c-1-1.7-0.601-3.5,0.899-4.4c1.601-0.9,3.2-0.2,4.2,1.5c1,1.7,0.6,3.5-0.9,4.4
		C34.8,31.7,33.1,31,32.2,29.3 M35.7,27.4c-0.5-0.9-1.2-1.3-1.801-1c-0.6,0.3-0.6,1.1-0.1,2c0.5,0.9,1.2,1.3,1.8,1
		C36.2,29.1,36.2,28.2,35.7,27.4"/>
	<polygon fill="#224099" points="43,28.1 41.5,24.9 41.8,28.4 40,28.9 36.8,23.1 38.7,22.6 40.3,26 40,22.2 41.3,21.8 43,25.2 
		42.6,21.4 44.5,20.9 44.8,27.5 	"/>
	<polygon fill="#224099" points="46.399,27.3 46,20.9 50.1,20.7 50.2,22.3 48,22.4 48,23.2 50.2,23.1 50.3,24.7 48.1,24.8 
		48.1,25.7 50.3,25.6 50.4,27.2 	"/>
	<path fill="#224099" d="M54,27.4l-0.5-2.2H53l-0.2,2.1L51,27.1l0.8-6.4l2.8,0.3c1.301,0.2,2,1.2,1.9,2.4c-0.1,1.1-0.7,1.6-1.2,1.8
		l0.7,2.5L54,27.4z M54.6,23.2c0-0.4-0.199-0.6-0.5-0.6L53.4,22.5L53.3,23.7l0.7,0.1C54.3,23.8,54.6,23.6,54.6,23.2"/>
	<path fill="#224099" d="M56.4,27.8l2-6.1l3,1c1.199,0.4,1.5,1.4,1.199,2.1c-0.199,0.8-0.8,1.1-1.5,1.1C61.7,26.2,62,27,61.7,27.8
		c-0.3,0.9-1.101,1.5-2.3,1.1L56.4,27.8z M60.1,26.9c0.101-0.3,0-0.5-0.3-0.6L58.9,26L58.6,26.9l0.9,0.3
		C59.8,27.3,60,27.2,60.1,26.9 M60.8,24.5c0.101-0.2,0-0.4-0.3-0.5l-0.9-0.3l-0.3,0.8l0.9,0.3C60.5,24.9,60.7,24.8,60.8,24.5"/>
	<path fill="#224099" d="M64.6,31.2l0.2-0.8l-1.5-0.8l-0.6,0.6l-1.7-1l4.8-4.7l1.9,1.1l-1.5,6.6L64.6,31.2z M65.9,26.8l-1.5,1.6
		l0.8,0.5L65.9,26.8z"/>
	<polygon fill="#224099" points="66.3,32.4 70.4,27.4 71.8,28.6 68.7,32.4 70.2,33.7 69.2,34.9 	"/>
	<polygon fill="#224099" points="69.6,35.1 74.4,30.8 75.6,32.2 72,35.4 73.3,36.9 72.1,38 	"/>
	<path fill="#EC1C24" d="M65.7,41.2c5.909,0,10.7,4.792,10.7,10.698c0,5.91-4.791,10.701-10.7,10.701S55,57.809,55,51.898
		C55,45.992,59.791,41.2,65.7,41.2"/>
	<path fill="#F1F1F2" d="M67.6,42.201c-2.3-0.4-4.5,0-6.5,1C61.2,43.9,61.7,45.4,63.3,45.8c2.2,0.6,5.8,0.9,6.9,0
		c0.8-0.7,1.1-1.6,1.2-2C70.3,43.1,69,42.5,67.6,42.201"/>
	<path fill="#F1F1F2" d="M72.7,58.998c1.399-1.398,2.399-3.199,2.7-5.199c0.5-2.9-0.301-5.799-2-7.999
		C73.3,46,73.2,46.4,73.3,47.201c0.2,1.399,1.3,4.698,0.4,8.698C73.5,57.199,73.1,58.199,72.7,58.998"/>
	<path fill="#F1F1F2" d="M60.4,60.398c1,0.701,2.199,1.1,3.5,1.4c1.899,0.4,3.699,0.1,5.399-0.5c-0.6-1.199-4-0.9-6.2-1.199
		C61.7,59.898,60.9,60.1,60.4,60.398"/>
	<path fill="#F1F1F2" d="M57,56.699c-0.9-3.5,0.9-8.099,1.7-9.899c0.5-1.2,0.6-1.9,0.6-2.301c-1.6,1.4-2.8,3.4-3.3,5.701
		C55.6,52.498,56,54.799,57,56.699"/>
	<path fill="#231F20" d="M65.4,42.1l4,1.2L69.6,43l-2.3-0.799C66.7,42.1,66,42,65.4,42.1"/>
	<path fill="#00ADEE" d="M64.5,42.1L65.4,42C65.1,42.1,64.8,42.1,64.5,42.1"/>
	<path fill="#231F20" d="M63.3,42.4l-0.2,0.7l1.2-0.2l0.101-0.699C64,42.201,63.7,42.3,63.3,42.4"/>
	<path fill="#EC1C24" d="M26.7,45.3C27.399,45,28.1,44.8,28.8,44.5c4.7-1.6,7.8,1.701,10.6,3.801c3.2,2.299,5.801-2.9,0.601-2.6
		C34.2,46,31.899,41.5,31.899,41.5c6.101,5.6,7.9,1.1,11.4,2c2,0.5,2.4,2.5,3.1,3.701C46.7,47.5,47,47.9,47.5,47.9
		c0.7,0.1,1.5-0.8,1.6-0.9c0.101-0.1,0.301-0.699-0.3-0.799C48.2,46.1,48,45.8,47.9,45.8c-0.101-0.1-0.2-0.2-0.301-0.4
		c-1.1-1.9-2.3-4.1-6.899-3.5c-5.301,0.801-6.2-2.1-6.2-2.1s2,1.9,4.899,1c2.801-0.9,5.4-0.4,7.9,1.8c2.5,2.3,4.4-4.6-0.6-3.1
		c-5.2,1.5-5.5-1.3-5.5-1.3s0.6,2.1,4.399,0.3c6-2.7,6.4,3.9,8.5,3.4c1.9-0.5,0-3.3-1.899-3.8c4.7-0.2,3.1,5.2,7.399,3.5
		c5.601-2.2,8.2,1.101,8.2,1.101C64.3,41,59.9,42.5,58.4,44.1c-0.9,1-2.2,2.601-1.2,4.8c2.3,4.899,10,2.399,10,2.399
		c-1.4,1.4-5.8,2.4-9.5,1.199C55.1,51.699,57.1,56.299,58.3,58.1c2.9,4.1,7.7,4.1,7.7,4.1c-2,0.5-6.5-0.301-9.4-4.1
		c-2-2.5-4-1.602-6-0.602C49,58.299,47.4,59.1,45.7,58.1c3,0,4.8-1.801,5-3c0.1-0.9-0.601-1.4-2.4-0.701c-6.4,2.5-8.3-3.4-8.3-3.4
		c1.1,1.701,2.5,2.9,5.5,2.4c2.5-0.6,3.4-1.199,3.4-1.699c-0.101-1.499-3.001,0-3.001,0s1.7-2.599,4.601-0.9
		c0.9,0.5,1.7,0.4,1.8-0.399c0.101-0.6-0.5-1.3-1.2-1.6c-1.399-0.5-3.5,0.5-4.7,1.698C43.7,53.398,42.1,51.6,41.7,51.1
		c-1.101-1-2.5-1-3.5-0.799c-4.4,2.299-6.301-2.5-6.301-2.5c1.601,3.098,6.4,3.098,3.601,0.1c-2-2.199-5.2-1.8-6.8-1.4
		c-0.101,0-0.2,0.101-0.301,0.101C19.399,50.201,17,43.1,17,43.1C20.3,47.701,23.1,46.701,26.7,45.3"/>
	<path fill="#F1F1F2" d="M58.4,53.199c0,0-0.101-2.6,2-3.899C62.5,48,69.3,48,71.9,50.4c0,0,1.199,0.899,1,3.2
		c-0.2,2.299-0.7,3.699-2.5,4.6c-1.801,0.799-6.4,1-9.9-0.4C60.5,57.699,58.1,56.699,58.4,53.199"/>
	<path fill="#231F20" d="M63.6,51.799l0.2-1.1l4.3,0.299L68,51.799c0,0-2.5,2.301-3.5,5.199L63,56.799c0,0,1.5-3.6,3.1-4.699
		L63.6,51.799z"/>
</g>
</svg>
