<svg xmlns="http://www.w3.org/2000/svg" xmlns:xlink="http://www.w3.org/1999/xlink" width="126" height="126" viewBox="0 0 126 126">
  <defs>
    <clipPath id="clip-path">
      <rect width="126" height="126" fill="none"/>
    </clipPath>
  </defs>
  <g id="price" clip-path="url(#clip-path)">
    <rect id="Rectangle_42" data-name="Rectangle 42" width="126" height="126" fill="none"/>
    <g id="bank" transform="translate(6 5.937)">
      <g id="Group_149" data-name="Group 149" transform="translate(19.827 0.063)">
        <path id="Path_96" data-name="Path 96" d="M163.6,122.652a4.661,4.661,0,0,0-.694-2.459l-4.422-7.118a7.8,7.8,0,0,1-.833-3.529V87.617a25.775,25.775,0,0,0-25.776-25.776h-11.9A25.775,25.775,0,0,0,94.2,87.617v21.929a7.788,7.788,0,0,1-.833,3.529l-4.422,7.118a4.661,4.661,0,0,0-.694,2.459h0a4.637,4.637,0,0,0,4.62,4.62h66.105A4.637,4.637,0,0,0,163.6,122.652Z" transform="translate(-88.253 -47.962)" fill="#88b337"/>
        <path id="Path_97" data-name="Path 97" d="M207.145,13.942,217.059.063H185.335l9.914,13.879v3.966h11.9Z" transform="translate(-163.524 -0.063)" fill="#88b337"/>
      </g>
      <path id="Path_98" data-name="Path 98" d="M240.707,154.407l-4.422-7.118a7.8,7.8,0,0,1-.833-3.529V121.83a25.769,25.769,0,0,0-5.413-15.862c-5.294,29.167-23.932,45.98-41.44,55.517h48.181a4.641,4.641,0,0,0,3.966-7.078Z" transform="translate(-146.228 -82.112)" fill="#6b962a"/>
      <path id="Path_99" data-name="Path 99" d="M231.562,153.167V151.9a6.682,6.682,0,0,0-6.662-6.662h-1.269V141.27h-3.966v3.966H218.4a6.662,6.662,0,0,0-2.34,12.908l3.609,1.348v7.554H218.4a2.7,2.7,0,0,1-2.7-2.7h0V163.08h-3.966v1.269a6.682,6.682,0,0,0,6.662,6.662h6.5a6.662,6.662,0,0,0,2.34-12.908l-3.609-1.348V149.2H224.9a2.7,2.7,0,0,1,2.7,2.7h0v1.269h3.965Zm-5.71,8.645a2.738,2.738,0,0,1,1.745,2.538,2.7,2.7,0,0,1-2.7,2.7h-1.269v-6.067Zm-6.186-6.543-2.221-.833A2.738,2.738,0,0,1,215.7,151.9a2.7,2.7,0,0,1,2.7-2.7h1.269Z" transform="translate(-164.149 -109.483)" fill="#fff"/>
      <g id="Group_150" data-name="Group 150" transform="translate(0 4.028)">
        <path id="Path_100" data-name="Path 100" d="M405.076,33.575h0a9.636,9.636,0,0,0-7.931-7.931h0a9.636,9.636,0,0,0,7.931-7.931h0a9.636,9.636,0,0,0,7.931,7.931h0A9.636,9.636,0,0,0,405.076,33.575Z" transform="translate(-307.921 -17.713)" fill="#fdb62f"/>
        <path id="Path_101" data-name="Path 101" d="M7.931,210.085h0A9.635,9.635,0,0,0,0,202.154H0a9.636,9.636,0,0,0,7.931-7.931h0a9.636,9.636,0,0,0,7.931,7.931h0A9.635,9.635,0,0,0,7.931,210.085Z" transform="translate(0 -154.568)" fill="#fdb62f"/>
      </g>
      <path id="Path_102" data-name="Path 102" d="M148.361,274.522a5.948,5.948,0,0,0-7.931-2.2l-28.135,12.015a3.98,3.98,0,0,1-1.566.317H75.851a3.966,3.966,0,1,1,0-7.931H91.713a11.9,11.9,0,0,0,11.9-11.9H70.617a18.028,18.028,0,0,0-14.058,6.761L44.127,286.636l14,25.657L112,299.346a28.612,28.612,0,0,0,6.7-2.459l27.759-14.217A5.946,5.946,0,0,0,148.361,274.522Z" transform="translate(-34.213 -205.28)" fill="#fec9a3"/>
      <path id="Path_103" data-name="Path 103" d="M86.578,388.153l4.461,8.169,53.872-12.947a28.612,28.612,0,0,0,6.7-2.459l15.01-7.713C141.679,380.837,108.567,385.6,86.578,388.153Z" transform="translate(-67.127 -289.309)" fill="#f7bb8f"/>
      <path id="Path_104" data-name="Path 104" d="M0,332.553v35.69H25.776l5.948-5.948L7.931,326.605Z" transform="translate(0 -253.18)" fill="#4398d1"/>
      <path id="Path_105" data-name="Path 105" d="M0,468.83H25.776l5.948-5.948-4.362-6.543A140.223,140.223,0,0,1,0,464.488Z" transform="translate(0 -353.767)" fill="#3e8cc7"/>
      <circle id="Ellipse_2" data-name="Ellipse 2" cx="3.966" cy="3.966" r="3.966" transform="translate(13.879 101.19)" fill="#d9d9d9"/>
    </g>
  </g>
</svg>
