<svg xmlns="http://www.w3.org/2000/svg" xmlns:xlink="http://www.w3.org/1999/xlink" width="126" height="126" viewBox="0 0 126 126">
  <defs>
    <clipPath id="clip-path">
      <rect width="126" height="126" fill="none"/>
    </clipPath>
  </defs>
  <g id="qote" clip-path="url(#clip-path)">
    <rect id="Rectangle_43" data-name="Rectangle 43" width="126" height="126" fill="none"/>
    <g id="right-quotation-mark" transform="translate(15 -14.547)">
      <g id="Group_148" data-name="Group 148" transform="translate(0 36.547)">
        <path id="Path_94" data-name="Path 94" d="M33.137,36.547H11.046a10.655,10.655,0,0,0-7.825,3.221A10.654,10.654,0,0,0,0,47.593V69.683a10.649,10.649,0,0,0,3.221,7.823,10.656,10.656,0,0,0,7.825,3.222H23.932a5.5,5.5,0,0,1,5.523,5.523v1.84A14.19,14.19,0,0,1,25.14,98.5a14.191,14.191,0,0,1-10.413,4.314H11.046a3.542,3.542,0,0,0-2.589,1.094A3.538,3.538,0,0,0,7.363,106.5v7.365a3.542,3.542,0,0,0,1.093,2.589,3.543,3.543,0,0,0,2.589,1.094h3.682a28.7,28.7,0,0,0,11.42-2.331,29.674,29.674,0,0,0,9.406-6.3,29.684,29.684,0,0,0,6.3-9.406,28.7,28.7,0,0,0,2.33-11.419v-40.5A11,11,0,0,0,33.137,36.547Z" transform="translate(0 -36.547)" fill="#fb0"/>
        <path id="Path_95" data-name="Path 95" d="M296.776,39.768a10.651,10.651,0,0,0-7.824-3.221H266.862a11,11,0,0,0-11.045,11.046V69.683a11,11,0,0,0,11.045,11.045h12.886a5.5,5.5,0,0,1,5.523,5.523v1.84a14.731,14.731,0,0,1-14.728,14.726h-3.682a3.735,3.735,0,0,0-3.682,3.682v7.365a3.735,3.735,0,0,0,3.682,3.682h3.682a28.7,28.7,0,0,0,11.42-2.331,29.178,29.178,0,0,0,15.705-15.706A28.7,28.7,0,0,0,300,88.092v-40.5A10.648,10.648,0,0,0,296.776,39.768Z" transform="translate(-204.27 -36.547)" fill="#fb0"/>
      </g>
    </g>
  </g>
</svg>
