<svg xmlns="http://www.w3.org/2000/svg" xmlns:xlink="http://www.w3.org/1999/xlink" width="30.259" height="28" viewBox="0 0 30.259 28">
  <defs>
    <clipPath id="clip-path">
      <rect width="30.259" height="28" fill="none"/>
    </clipPath>
  </defs>
  <g id="shopping-cart" clip-path="url(#clip-path)">
    <g id="Group_124" data-name="Group 124" transform="translate(10.027 22.678)">
      <g id="Group_123" data-name="Group 123">
        <path id="Path_89" data-name="Path 89" d="M172.317,402.828a2.661,2.661,0,1,0,2.661,2.661A2.664,2.664,0,0,0,172.317,402.828Zm0,3.836a1.175,1.175,0,1,1,1.175-1.175A1.177,1.177,0,0,1,172.317,406.664Z" transform="translate(-169.656 -402.828)"/>
      </g>
    </g>
    <g id="Group_126" data-name="Group 126" transform="translate(19.361 22.678)">
      <g id="Group_125" data-name="Group 125">
        <path id="Path_90" data-name="Path 90" d="M330.262,402.828a2.661,2.661,0,1,0,2.661,2.661A2.664,2.664,0,0,0,330.262,402.828Zm0,3.836a1.175,1.175,0,1,1,1.175-1.175A1.177,1.177,0,0,1,330.262,406.664Z" transform="translate(-327.601 -402.828)"/>
      </g>
    </g>
    <g id="Group_128" data-name="Group 128" transform="translate(11.288 8.667)">
      <g id="Group_127" data-name="Group 127" transform="translate(0 0)">
        <path id="Path_91" data-name="Path 91" d="M202.386,165.755H191.739a.743.743,0,1,0,0,1.486h10.647a.743.743,0,0,0,0-1.486Z" transform="translate(-190.996 -165.755)"/>
      </g>
    </g>
    <g id="Group_130" data-name="Group 130" transform="translate(11.868 12.525)">
      <g id="Group_129" data-name="Group 129">
        <path id="Path_92" data-name="Path 92" d="M211.033,231.035h-9.488a.743.743,0,1,0,0,1.486h9.488a.743.743,0,0,0,0-1.486Z" transform="translate(-200.802 -231.035)"/>
      </g>
    </g>
    <g id="Group_132" data-name="Group 132">
      <g id="Group_131" data-name="Group 131" transform="translate(0 0)">
        <path id="Path_93" data-name="Path 93" d="M29.924,24.47a1.48,1.48,0,0,0-1.152-.547H5.631l-.467-2.269A1.488,1.488,0,0,0,4.3,20.591L1.039,19.176a.743.743,0,0,0-.592,1.363l3.261,1.416L7.3,39.4A1.491,1.491,0,0,0,8.758,40.59h17.8a.743.743,0,1,0,0-1.486H8.758l-.437-2.123H26.695A1.491,1.491,0,0,0,28.15,35.8l2.078-10.087A1.48,1.48,0,0,0,29.924,24.47ZM26.695,35.5H8.015L5.937,25.409H28.773Z" transform="translate(0 -19.114)"/>
      </g>
    </g>
  </g>
</svg>
