<svg xmlns="http://www.w3.org/2000/svg" xmlns:xlink="http://www.w3.org/1999/xlink" width="126" height="126" viewBox="0 0 126 126">
  <defs>
    <clipPath id="clip-path">
      <rect width="126" height="126" fill="none"/>
    </clipPath>
  </defs>
  <g id="winner" clip-path="url(#clip-path)">
    <rect id="Rectangle_41" data-name="Rectangle 41" width="126" height="126" fill="none"/>
    <g id="podium" transform="translate(7 6.001)">
      <g id="_009---Podium-" data-name="009---Podium-" transform="translate(0 -0.001)">
        <path id="Shape" d="M35.632,35H74.963V81.345a1.931,1.931,0,0,1-1.931,1.931h-37.4Z" transform="translate(33.175 30.658)" fill="#bdc3c7"/>
        <path id="Shape-2" data-name="Shape" d="M32.112,26.491a1.916,1.916,0,0,1-1.078-.33c-5.115-3.449-13.77-11.318-13.77-18.924a6.142,6.142,0,0,1,1.858-4.743A6.013,6.013,0,0,1,23.274,1c3.671,0,7.778,2.667,7.778,6.237a1.931,1.931,0,1,1-3.862,0c0-.994-1.972-2.375-3.916-2.375a2.317,2.317,0,0,0-1.545.481,2.5,2.5,0,0,0-.6,1.9c0,5.561,7.216,12.449,12.069,15.721a1.931,1.931,0,0,1-1.083,3.532Z" transform="translate(16.065 -0.999)" fill="#f29c1f"/>
        <path id="Shape-3" data-name="Shape" d="M33.984,26.491A1.931,1.931,0,0,1,32.9,22.959C37.747,19.688,44.969,12.8,44.969,7.239a2.5,2.5,0,0,0-.6-1.9,2.317,2.317,0,0,0-1.545-.481c-1.943,0-3.914,1.383-3.914,2.377a1.931,1.931,0,1,1-3.862,0C35.044,3.668,39.151,1,42.822,1A6.013,6.013,0,0,1,46.974,2.5a6.142,6.142,0,0,1,1.858,4.743c0,7.6-8.655,15.473-13.77,18.924A1.917,1.917,0,0,1,33.984,26.491Z" transform="translate(29.839 -0.999)" fill="#f29c1f"/>
        <path id="Shape-4" data-name="Shape" d="M24.312,3.232C16.9,13.679,33.2,34.007,29.526,44.452l5.749,3.862,5.586-3.862c-3.669-10.445,12.625-30.773,5.214-41.22a2.864,2.864,0,0,0-2.329-1.2H26.641A2.864,2.864,0,0,0,24.312,3.232Z" transform="translate(20.812 -0.035)" fill="#f0c419"/>
        <path id="Shape-5" data-name="Shape" d="M28.175,16.937a1.931,1.931,0,0,1-1.607-.857,9.87,9.87,0,0,1,0-10.621,1.931,1.931,0,0,1,3.217,2.136,6.006,6.006,0,0,0,0,6.347,1.931,1.931,0,0,1-1.61,3Z" transform="translate(23.293 2.376)" fill="#f3d55b"/>
        <path id="Shape-6" data-name="Shape" d="M2,40.357H40.682V78.288H3.931A1.931,1.931,0,0,1,2,76.357Z" transform="translate(1.862 35.646)" fill="#f29c1f"/>
        <rect id="Rectangle-path" width="34.759" height="57.945" transform="translate(38.621 55.989)" fill="#f0c419"/>
        <path id="Shape-7" data-name="Shape" d="M26.248,24H44.786a4.248,4.248,0,0,1,4.248,4.248v2.068a1.413,1.413,0,0,1-1.414,1.414H23.414A1.414,1.414,0,0,1,22,30.311V28.248A4.248,4.248,0,0,1,26.248,24Z" transform="translate(20.483 20.417)" fill="#f29c1f"/>
        <path id="Shape-8" data-name="Shape" d="M14.166,59.449a1.931,1.931,0,1,1,0-3.862,3.862,3.862,0,1,0-3.09-6.179,1.931,1.931,0,1,1-3.09-2.317,7.724,7.724,0,1,1,6.179,12.359Z" transform="translate(7.076 39.037)" fill="#d25627"/>
        <path id="Shape-9" data-name="Shape" d="M13.916,65.448a7.676,7.676,0,0,1-5.459-2.265,1.931,1.931,0,1,1,2.73-2.73,3.862,3.862,0,1,0,2.729-6.591,1.931,1.931,0,1,1,0-3.862,7.724,7.724,0,1,1,0,15.448Z" transform="translate(7.325 44.623)" fill="#d25627"/>
        <path id="Shape-10" data-name="Shape" d="M12.862,53.862H10.931a1.931,1.931,0,1,1,0-3.862h1.931a1.931,1.931,0,1,1,0,3.862Z" transform="translate(8.379 44.623)" fill="#d25627"/>
        <path id="Shape-11" data-name="Shape" d="M32.713,71.034A1.931,1.931,0,0,1,30.782,69.1V50.592l-2.5,2.5a1.931,1.931,0,0,1-2.73-2.73l5.793-5.793a1.931,1.931,0,0,1,3.3,1.365V69.1A1.931,1.931,0,0,1,32.713,71.034Z" transform="translate(23.287 39.037)" fill="#b19046"/>
        <path id="Shape-12" data-name="Shape" d="M38.517,59.862H26.931a1.931,1.931,0,1,1,0-3.862H38.517a1.931,1.931,0,0,1,0,3.862Z" transform="translate(23.276 50.21)" fill="#b19046"/>
        <path id="Shape-13" data-name="Shape" d="M44.935,71.034A1.931,1.931,0,0,1,43,69.1a11.393,11.393,0,0,1,2.982-8.11,24.591,24.591,0,0,1,3.8-3.117A19.842,19.842,0,0,0,53.2,55.053a5.123,5.123,0,0,0,1.39-3.329,3.862,3.862,0,0,0-7.724,0,1.931,1.931,0,1,1-3.862,0,7.724,7.724,0,1,1,15.448,0,8.848,8.848,0,0,1-2.364,5.9,22.838,22.838,0,0,1-4.065,3.406A21.431,21.431,0,0,0,48.8,63.648,7.562,7.562,0,0,0,46.866,69.1a1.931,1.931,0,0,1-1.931,1.931Z" transform="translate(40.031 39.037)" fill="#7f8c8d"/>
        <path id="Shape-14" data-name="Shape" d="M56.517,59.862H44.931a1.931,1.931,0,0,1,0-3.862H56.517a1.931,1.931,0,1,1,0,3.862Z" transform="translate(40.034 50.21)" fill="#7f8c8d"/>
        <path id="Shape-15" data-name="Shape" d="M1.931,38h36.69v7.724H1.931A1.931,1.931,0,0,1,0,43.793V39.931A1.931,1.931,0,0,1,1.931,38Z" transform="translate(0 33.451)" fill="#d25627"/>
        <path id="Shape-16" data-name="Shape" d="M38,33H74.69a1.931,1.931,0,0,1,1.931,1.931v3.862a1.931,1.931,0,0,1-1.931,1.931H38Z" transform="translate(35.379 28.796)" fill="#7f8c8d"/>
        <rect id="Rectangle-path-2" data-name="Rectangle-path" width="38.621" height="7.724" rx="1" transform="translate(36.69 52.141)" fill="#b19046"/>
        <path id="Shape-17" data-name="Shape" d="M26.862,38.862H24.931a1.931,1.931,0,1,1,0-3.862h1.931a1.931,1.931,0,1,1,0,3.862Z" transform="translate(21.414 30.658)" fill="#f3d55b"/>
        <path id="Shape-18" data-name="Shape" d="M39.586,38.862H29.931a1.931,1.931,0,1,1,0-3.862h9.655a1.931,1.931,0,0,1,0,3.862Z" transform="translate(26.069 30.658)" fill="#f3d55b"/>
      </g>
    </g>
  </g>
</svg>
