<?xml version="1.0" encoding="utf-8"?>
<!-- Generator: Adobe Illustrator 16.0.0, SVG Export Plug-In . SVG Version: 6.00 Build 0)  -->
<!DOCTYPE svg PUBLIC "-//W3C//DTD SVG 1.1//EN" "http://www.w3.org/Graphics/SVG/1.1/DTD/svg11.dtd">
<svg version="1.1" id="Layer_1" xmlns="http://www.w3.org/2000/svg" xmlns:xlink="http://www.w3.org/1999/xlink" x="0px" y="0px"
	 width="100px" height="100px" viewBox="0 0 100 100" enable-background="new 0 0 100 100" xml:space="preserve">
<g>
	<linearGradient id="SVGID_1_" gradientUnits="userSpaceOnUse" x1="49.9995" y1="0.1909" x2="49.9995" y2="88.6523">
		<stop  offset="0" style="stop-color:#FF0713"/>
		<stop  offset="1" style="stop-color:#C90713"/>
	</linearGradient>
	<path fill-rule="evenodd" clip-rule="evenodd" fill="url(#SVGID_1_)" d="M99.497,50c0,27.34-22.155,49.5-49.495,49.5
		S0.503,77.34,0.503,50c0-27.334,22.16-49.5,49.5-49.5S99.497,22.666,99.497,50z"/>
	<path fill="#FFDD00" d="M57.256,47.348c7.868,0.545,15.541-0.355,19.813-3.164c2.519-1.653,2.632-4.524,1.886-8.276
		c-0.985-4.925-4.889-5.889-8.424-3.869C65.063,35.174,60.448,41.07,57.256,47.348 M54.846,47.138
		c4.194-7.908,6.021-16.447,5.743-22.679c-0.133-3.067-1.87-3.759-4.608-3.461c-8.551,0.928-18.982,6.294-22.956,12.546
		c-1.1,1.728-1.771,4.147,0.068,5.972C37.033,43.419,45.856,46.185,54.846,47.138 M53.773,49.047
		c-8.536-1.193-17.932-1.455-23.32-0.661c-8.578,1.26-9.792,5.807-9.811,11.372c-0.02,4.925,1.979,9.407,8.375,8.062
		C40.515,65.411,48.645,57.775,53.773,49.047 M56.257,49.426c-2.623,5.782-4.011,11.661-3.73,15.822
		c0.114,1.649,0.68,3.061,3.142,2.795c4.731-0.516,12.816-4.028,15.97-8.478c1.27-1.799,1.422-3.353-0.251-4.983
		C69.042,52.298,63.097,50.553,56.257,49.426 M51.529,57.18l-1.971,1.287c-1.93,4.258-8.395,17.455-14.583,17.866l2.606,2.737
		C41.97,77.563,47.705,66.4,51.529,57.18"/>
</g>
</svg>
