<?xml version="1.0" encoding="utf-8"?>
<!-- Generator: Adobe Illustrator 16.0.0, SVG Export Plug-In . SVG Version: 6.00 Build 0)  -->
<!DOCTYPE svg PUBLIC "-//W3C//DTD SVG 1.1//EN" "http://www.w3.org/Graphics/SVG/1.1/DTD/svg11.dtd">
<svg version="1.1" id="Layer_1" xmlns="http://www.w3.org/2000/svg" xmlns:xlink="http://www.w3.org/1999/xlink" x="0px" y="0px"
	 width="100px" height="100px" viewBox="0 0 100 100" enable-background="new 0 0 100 100" xml:space="preserve">
<circle fill="#FFFF00" cx="50" cy="50" r="49.5"/>
<path fill="#FFFFFF" d="M50,96.304C24.468,96.304,3.697,75.532,3.697,50C3.697,24.467,24.468,3.696,50,3.696
	c25.531,0,46.304,20.771,46.304,46.304C96.304,75.532,75.531,96.304,50,96.304z M50,19.536c-16.797,0-30.463,13.667-30.463,30.464
	S33.203,80.464,50,80.464c16.798,0,30.464-13.667,30.464-30.464C80.464,33.203,66.798,19.536,50,19.536z"/>
<path fill="#224989" d="M14.008,74.58l6.914-6.137l2.569,2.896l-2.239,4.154l4.388-1.732l2.568,2.895l-6.915,6.136l-1.859-2.096
	l4.156-3.688l-5.523,2.145l-0.831-0.935l2.788-5.229l-4.156,3.688L14.008,74.58z M25.041,85.335l5.095-7.714l2.337,1.544
	l-5.095,7.715L25.041,85.335z M30.914,88.919l3.496-8.558l2.594,1.061l-2.575,6.301l3.238,1.324l-0.922,2.255L30.914,88.919z
	 M40.587,92.311l1.375-9.141l2.771,0.416l-1.013,6.733l3.46,0.52l-0.363,2.41L40.587,92.311z M50.521,93.253l-0.402-9.237
	l2.798-0.122l0.402,9.237L50.521,93.253z M58.257,91.429c-1.174-0.581-1.959-1.554-2.354-2.921s-0.252-2.609,0.43-3.728
	c0.682-1.116,1.715-1.876,3.1-2.275c1.385-0.401,2.664-0.311,3.837,0.268c1.174,0.58,1.958,1.554,2.353,2.922
	c0.396,1.367,0.254,2.61-0.427,3.726c-0.683,1.118-1.717,1.876-3.102,2.277S59.428,92.009,58.257,91.429z M58.759,85.938
	c-0.268,0.549-0.309,1.141-0.125,1.778c0.185,0.638,0.537,1.115,1.057,1.435c0.519,0.319,1.093,0.389,1.724,0.204
	c0.631-0.183,1.081-0.547,1.35-1.094s0.311-1.139,0.126-1.776c-0.184-0.64-0.536-1.116-1.055-1.436
	c-0.52-0.318-1.096-0.387-1.727-0.204C59.479,85.027,59.029,85.392,58.759,85.938z M70.833,88.152l-5.244-7.613l2.378-1.638
	l5.128,1.786L70.61,77.08l2.307-1.589l5.244,7.614l-2.217,1.527l-5.462-1.926l2.658,3.857L70.833,88.152z M80.05,79.567
	l-0.708-2.438c1.147-0.143,2.085-0.665,2.812-1.567c0.432-0.534,0.516-0.904,0.252-1.109c-0.124-0.102-0.331-0.039-0.621,0.187
	s-0.628,0.503-1.016,0.837c-0.388,0.333-0.81,0.64-1.265,0.92c-0.453,0.279-0.967,0.419-1.539,0.415
	c-0.572-0.003-1.127-0.221-1.66-0.65c-0.648-0.521-0.994-1.235-1.032-2.138c-0.039-0.903,0.318-1.823,1.071-2.758
	c0.978-1.215,2.129-1.968,3.453-2.259l0.604,2.408c-0.983,0.238-1.793,0.752-2.426,1.539c-0.295,0.365-0.334,0.636-0.115,0.81
	c0.116,0.095,0.321,0.035,0.614-0.182c0.294-0.215,0.64-0.486,1.035-0.813c0.396-0.326,0.821-0.633,1.28-0.916
	c0.456-0.283,0.964-0.429,1.517-0.434c0.556-0.005,1.084,0.195,1.586,0.599c0.785,0.633,1.176,1.4,1.171,2.303
	c-0.006,0.903-0.399,1.84-1.182,2.813C82.763,78.512,81.486,79.323,80.05,79.567z"/>
<path fill="#EF3E34" d="M31.311,22.257l-3.707-7.986l3.343-1.552l3.178,3.179l-0.381-4.477l3.342-1.552l3.707,7.987l-2.419,1.124
	l-2.228-4.801l0.446,5.626l-1.08,0.501l-4.009-3.974l2.228,4.799L31.311,22.257z M42.902,17.597l-1.011-8.746l6.743-0.779
	l0.267,2.306l-4.092,0.472l0.101,0.871l4.003-0.462l0.265,2.305l-4.001,0.462l0.111,0.96l4.091-0.473l0.265,2.306L42.902,17.597z
	 M52.522,15.887c-0.778-0.966-1.053-2.135-0.819-3.507c0.23-1.371,0.874-2.386,1.925-3.044c1.052-0.658,2.254-0.873,3.607-0.644
	c0.953,0.161,1.713,0.51,2.282,1.046c0.566,0.537,0.953,1.148,1.16,1.836l-2.413,0.781c-0.091-0.328-0.257-0.623-0.502-0.887
	c-0.245-0.265-0.551-0.428-0.915-0.489c-0.622-0.105-1.164,0.023-1.627,0.384c-0.462,0.361-0.746,0.85-0.848,1.464
	c-0.104,0.616,0.002,1.169,0.317,1.663c0.319,0.494,0.79,0.793,1.413,0.898c0.241,0.041,0.501,0.042,0.776,0.005
	c0.276-0.038,0.491-0.098,0.646-0.181l0.056-0.332l-1.607-0.271l0.387-2.288l4.226,0.714l-0.603,3.577
	c-1.255,0.975-2.677,1.33-4.266,1.066C54.365,17.45,53.3,16.852,52.522,15.887z M60.514,18.357l6.896-6.367l2.986,1.524
	l-1.109,9.319l-2.692-1.374l0.187-1.062l-2.823-1.441l-0.752,0.775L60.514,18.357z M65.648,17.213l1.55,0.792l0.514-2.922
	L65.648,17.213z"/>
<g>
	
		<radialGradient id="SVGID_1_" cx="352.0693" cy="-186.7158" r="54.9775" gradientTransform="matrix(0.9834 0 0 -1.0186 -295.9125 -152.7225)" gradientUnits="userSpaceOnUse">
		<stop  offset="0" style="stop-color:#FFFF00"/>
		<stop  offset="0.2263" style="stop-color:#FCEE21"/>
		<stop  offset="1" style="stop-color:#FBB03B"/>
	</radialGradient>
	<path fill="url(#SVGID_1_)" d="M19.797,50.167v-0.165c0-16.68,12.978-30.201,30.283-30.201c17.302,0,30.123,13.36,30.123,30.036
		v0.165c0,16.677-12.978,30.201-30.285,30.201C32.616,80.203,19.797,66.838,19.797,50.167z"/>
	<path fill="#0255A5" d="M36.418,33.851l0.579-3.716l-2.651,2.674l-3.353-1.711l1.715,3.351l-2.65,2.659l3.71-0.59l1.717,3.341
		l0.58-3.708l3.709-0.606L36.418,33.851z M66.494,63.699l0.599-3.803l-2.72,2.73l-3.438-1.737l1.758,3.429l-2.721,2.731l3.799-0.615
		l1.766,3.433l0.594-3.813l3.807-0.61L66.494,63.699z M29.858,48.223l-2.214-3.027l0.011,3.755l-3.582,1.169l3.589,1.154
		l0.009,3.759l2.199-3.049l3.582,1.152l-2.221-3.035l2.203-3.044L29.858,48.223z M72.237,48.065l-2.27-3.105l0.005,3.846
		l-3.665,1.201l3.678,1.187l0.01,3.846l2.257-3.119l3.666,1.18l-2.277-3.111l2.264-3.13L72.237,48.065z M51.771,29.861l3.035-2.216
		l-3.766,0.014l-1.16-3.582l-1.156,3.587l-3.762,0.005l3.05,2.204l-1.156,3.577l3.04-2.216l3.047,2.202L51.771,29.861z
		 M51.93,72.239l3.113-2.267l-3.851,0.002l-1.205-3.66l-1.183,3.669l-3.851,0.01l3.129,2.256l-1.185,3.671l3.114-2.274l3.125,2.259
		L51.93,72.239z"/>
	<g>
		<g>
			<g>
				<defs>
					<path id="SVGID_2_" d="M19.796,50.167v-0.17c0-16.685,12.977-30.201,30.275-30.201c17.316,0,30.13,13.365,30.13,30.033v0.167
						c0,16.685-12.978,30.201-30.277,30.201C32.608,80.198,19.796,66.846,19.796,50.167z"/>
				</defs>
				<clipPath id="SVGID_3_">
					<use xlink:href="#SVGID_2_"  overflow="visible"/>
				</clipPath>
				<polygon id="stripe_80_" clip-path="url(#SVGID_3_)" fill="#EF3E34" points="23.408,67.797 66.819,23.421 68.839,25.545 
					25.422,69.93 				"/>
			</g>
			<g>
				<defs>
					<path id="SVGID_4_" d="M19.796,50.167v-0.17c0-16.685,12.977-30.201,30.275-30.201c17.316,0,30.13,13.365,30.13,30.033v0.167
						c0,16.685-12.978,30.201-30.277,30.201C32.608,80.198,19.796,66.846,19.796,50.167z"/>
				</defs>
				<clipPath id="SVGID_5_">
					<use xlink:href="#SVGID_4_"  overflow="visible"/>
				</clipPath>
				<polygon id="stripe_79_" clip-path="url(#SVGID_5_)" fill="#EF3E34" points="27.436,72.061 70.838,27.669 72.854,29.806 
					29.44,74.195 				"/>
			</g>
			<g>
				<defs>
					<path id="SVGID_6_" d="M19.796,50.167v-0.17c0-16.685,12.977-30.201,30.275-30.201c17.316,0,30.13,13.365,30.13,30.033v0.167
						c0,16.685-12.978,30.201-30.277,30.201C32.608,80.198,19.796,66.846,19.796,50.167z"/>
				</defs>
				<clipPath id="SVGID_7_">
					<use xlink:href="#SVGID_6_"  overflow="visible"/>
				</clipPath>
				<polygon id="stripe_78_" clip-path="url(#SVGID_7_)" fill="#EF3E34" points="31.447,76.326 74.863,31.937 76.878,34.068 
					33.467,78.445 				"/>
			</g>
			<g>
				<defs>
					<path id="SVGID_8_" d="M19.796,50.167v-0.17c0-16.685,12.977-30.201,30.275-30.201c17.316,0,30.13,13.365,30.13,30.033v0.167
						c0,16.685-12.978,30.201-30.277,30.201C32.608,80.198,19.796,66.846,19.796,50.167z"/>
				</defs>
				<clipPath id="SVGID_9_">
					<use xlink:href="#SVGID_8_"  overflow="visible"/>
				</clipPath>
				<polygon id="stripe_77_" clip-path="url(#SVGID_9_)" fill="#FFFFFF" points="25.391,69.9 68.804,25.523 70.816,27.657 
					27.407,72.032 				"/>
			</g>
			<g>
				<defs>
					<path id="SVGID_10_" d="M19.796,50.167v-0.17c0-16.685,12.977-30.201,30.275-30.201c17.316,0,30.13,13.365,30.13,30.033v0.167
						c0,16.685-12.978,30.201-30.277,30.201C32.608,80.198,19.796,66.846,19.796,50.167z"/>
				</defs>
				<clipPath id="SVGID_11_">
					<use xlink:href="#SVGID_10_"  overflow="visible"/>
				</clipPath>
				<polygon id="stripe_76_" clip-path="url(#SVGID_11_)" fill="#FFFFFF" points="29.423,74.155 72.836,29.771 74.854,31.904 
					31.44,76.289 				"/>
			</g>
		</g>
	</g>
</g>
</svg>
